<svg xmlns="http://www.w3.org/2000/svg" xmlns:xlink="http://www.w3.org/1999/xlink" viewBox="0 0 390.65 275.6"><defs><style>.cls-1,.cls-10,.cls-4{fill:none;}.cls-2{clip-path:url(#clip-path);}.cls-17,.cls-3{fill:#fff;}.cls-3,.cls-5,.cls-7,.cls-8{fill-rule:evenodd;}.cls-4{stroke:#89bf44;stroke-width:2px;}.cls-5,.cls-6{fill:#8dc63f;}.cls-7{fill:#89bf44;}.cls-8{fill:#388841;}.cls-9{font-size:32px;}.cls-11,.cls-12,.cls-13,.cls-14,.cls-15,.cls-18,.cls-9{fill:#231f20;}.cls-11,.cls-12,.cls-13,.cls-14,.cls-15,.cls-9{font-family:NanumBarunGothic;}.cls-10{stroke:#231f20;stroke-linecap:round;stroke-linejoin:round;}.cls-11{font-size:32px;}.cls-12{font-size:32px;}.cls-13{font-size:29px;}.cls-14{font-size:29px;}.cls-15{font-size:29px;}.cls-16{fill:#398841;}</style><clipPath id="clip-path"><rect class="cls-1" width="390.65" height="275.6"/></clipPath></defs><g id="레이어_1" data-name="레이어 1"><g class="cls-2"><path class="cls-3" d="M382.82,126.07c0,67.5-83.94,122.22-187.5,122.22S7.82,193.57,7.82,126.07,91.77,3.85,195.32,3.85s187.5,54.72,187.5,122.22"/><ellipse class="cls-4" cx="195.32" cy="126.07" rx="187.5" ry="122.22"/><path class="cls-5" d="M260.81,100a8.37,8.37,0,1,0-8.56-8.37,8.48,8.48,0,0,0,8.56,8.37"/><path class="cls-5" d="M288,116.68c1.81,2.69,3.55,5.25,5,7.37a22.31,22.31,0,1,1-31.91,20.13c0-.47,0-.93.07-1.38H260l-4,6.47a27.89,27.89,0,1,0,32-32.59"/><path class="cls-5" d="M246.1,163.08l13.21-21.47h28.61c3.31,0,11.42-5.65,7.29-12.12,0,0-18-27-19.53-28.48s-6.19-2.89-10.33-.14c-3.24,2.17-10,17.46-10,17.46s-7.7.15-10.06,0-3,7.85-.13,7.85h14l5.23-9.07,10.86,16.64H253.12l-17.34,29.33c-1,1.78-.82,4.36,2.58,4.36s5.45-1.47,7.74-4.36"/><rect class="cls-6" x="235.74" y="121.9" width="24.94" height="6.92"/><polygon class="cls-5" points="238.51 122.28 235.81 124.17 221.29 103.43 223.99 101.53 238.51 122.28"/><path class="cls-7" d="M119.13,190.48c22,8.27,49,13.11,77.81,13.11,76,0,137.67-33.46,137.67-75,0-21.16-19.55-48.78-69.34-48.78-36.08,0-67.52,15.93-67.52,35.48,0,3.43,2,7.26,4.63,9.88,4,4.63,5.24,10.28,5.24,15.52,0,24-35.68,43.34-79.62,43.34-29,0-55.63-8.07-68.73-21.17C48.79,152.39,45.36,140.5,45.36,128.6c0-45.75,67.93-82.84,151.58-82.84,83.85,0,151.78,37.09,151.78,82.84s-67.93,82.85-151.78,82.85c-33.06,0-63.7-5.85-88.49-15.52Z"/><path class="cls-8" d="M118.13,183.7c22,8.27,49,13.1,77.81,13.1,76,0,137.67-33.45,137.67-75,0-21.16-19.55-48.78-69.34-48.78-36.08,0-67.52,15.93-67.52,35.48,0,3.42,2,7.26,4.63,9.87,4,4.64,5.24,10.28,5.24,15.53,0,24-35.68,43.33-79.62,43.33-29,0-55.63-8.06-68.73-21.16-10.48-10.48-13.91-22.37-13.91-34.27C44.36,76.06,112.29,39,195.94,39c83.85,0,151.78,37.08,151.78,82.84s-67.93,82.85-151.78,82.85c-33.06,0-63.7-5.85-88.49-15.52Z"/></g><text class="cls-9" transform="translate(110.73 226.75) rotate(16.14)">W</text><g class="cls-2"><polygon class="cls-10" points="130.12 233.58 133.22 234.48 145.81 212.9 143.23 212.16 132.58 230.79 133.3 209.28 130.51 208.47 119.72 226.87 120.58 205.6 117.87 204.82 117.09 229.81 120.14 230.69 130.82 212.5 130.12 233.58"/></g><text class="cls-9" transform="translate(141.8 235.32) rotate(9.75)">E</text><g class="cls-2"><polygon class="cls-10" points="159.52 237.06 147.51 235 149.13 225.54 160.3 227.46 160.7 225.12 149.54 223.2 150.79 215.89 162.81 217.95 163.22 215.59 148.43 213.04 144.32 236.95 159.11 239.49 159.52 237.06"/></g><text class="cls-11" transform="matrix(1, 0.09, -0.09, 1, 161.77, 238.69)">B</text><g class="cls-2"><path class="cls-10" d="M176.11,240.54a7.35,7.35,0,0,0,2.67-1.38,6.45,6.45,0,0,0,1.68-2.15,7.49,7.49,0,0,0,.71-2.54,6.6,6.6,0,0,0-.19-2.33,5.64,5.64,0,0,0-1-1.93,5.87,5.87,0,0,0-1.6-1.45,6.88,6.88,0,0,0-2.19-.87v-.06a6,6,0,0,0,3.34-1.74,5.45,5.45,0,0,0,1.46-3.36,5.13,5.13,0,0,0-.26-2.14,4.75,4.75,0,0,0-1.19-1.84,6.7,6.7,0,0,0-2.08-1.36,9.47,9.47,0,0,0-2.94-.7L166.5,216l-2.15,24.12,8.16.73A9.62,9.62,0,0,0,176.11,240.54Zm.85-10a4.43,4.43,0,0,1,1.12,3.66,4.49,4.49,0,0,1-1.66,3.32,5.57,5.57,0,0,1-4,.93l-5-.45.84-9.5,4.43.4A6.64,6.64,0,0,1,177,230.5Zm.12-10.37A3.13,3.13,0,0,1,178,223a3.46,3.46,0,0,1-1.63,3,6.68,6.68,0,0,1-3.76.56l-4.21-.37.67-7.56,4.53.41A6.18,6.18,0,0,1,177.08,220.13Z"/></g><text class="cls-12" transform="translate(182.5 240.41) rotate(1.97)"> </text><text class="cls-13" transform="translate(190.38 240.91) rotate(-1.7)">접</text><g class="cls-2"><path class="cls-10" d="M198.93,241.94l-.11-3.6,11.65-.34.11,3.59Zm13.87-8.51-2.46.07.07,2.44-11.65.34-.07-2.29-2.46.08.3,10.11,16.58-.49Zm-2.72-7.61.19,6.18,2.49-.08-.43-14.32-2.49.08.18,5.91-4.67.14.07,2.23Zm-6.69-3.18a11.67,11.67,0,0,0,.86-3.64c-1.35.08-2.64.14-3.88.18l-3.68.11-4.44.13.07,2.14,2.63-.08,3.13-.1c1,0,2.07-.1,3.08-.17a9.55,9.55,0,0,1-1.34,3,16.27,16.27,0,0,1-2.37,2.82,20.89,20.89,0,0,1-3.13,2.44,19.93,19.93,0,0,1-3.63,1.83L192.4,233a21.91,21.91,0,0,0,3.89-2.1,21.43,21.43,0,0,0,3.87-3.29,19.73,19.73,0,0,0,2.9,2.46,21.89,21.89,0,0,0,3.23,1.91l1.48-1.87c-.53-.22-1.07-.48-1.63-.78a19.38,19.38,0,0,1-1.67-1c-.55-.36-1.08-.74-1.59-1.15a10.68,10.68,0,0,1-1.32-1.27A16.37,16.37,0,0,0,203.39,222.64Z"/></g><text class="cls-14" transform="translate(217.73 240.04) rotate(-7.7)">근</text><g class="cls-2"><path class="cls-10" d="M239.65,238.36l-14.92,2-.89-6.58-2.47.34,1.18,8.73,17.39-2.35Zm-23.07-8.91.29,2.13,25-3.39-.29-2.13-4.86.66c0-.7,0-1.48-.08-2.34s-.09-1.78-.15-2.73-.14-2-.23-3-.19-2.05-.3-3.06l-17.13,2.31.29,2.16,14.6-2c.19,1.44.32,2.93.4,4.46s.11,3,.13,4.48Z"/></g><text class="cls-15" transform="matrix(0.97, -0.24, 0.24, 0.97, 244.86, 236.3)">성</text><path class="cls-10" d="M264.19,231.52a3.23,3.23,0,0,1-.86,1.22,7.09,7.09,0,0,1-1.73,1.12,15,15,0,0,1-5.32,1.34,7.44,7.44,0,0,1-2-.17,3.08,3.08,0,0,1-1.33-.67,2,2,0,0,1-.56-2.22,3,3,0,0,1,.86-1.23,6.88,6.88,0,0,1,1.7-1.15,12.48,12.48,0,0,1,2.57-.92,12.8,12.8,0,0,1,2.75-.42,7,7,0,0,1,2.06.2,3.13,3.13,0,0,1,1.34.68,2.1,2.1,0,0,1,.63,1A2,2,0,0,1,264.19,231.52Zm1.56-3.68a4.74,4.74,0,0,0-2-1.2,8.89,8.89,0,0,0-2.93-.39,16.55,16.55,0,0,0-3.8.56,16.11,16.11,0,0,0-3.6,1.31,9.14,9.14,0,0,0-2.39,1.72,5,5,0,0,0-1.2,2,4.1,4.1,0,0,0,1,4,5,5,0,0,0,2,1.18,9.18,9.18,0,0,0,2.92.39,18.83,18.83,0,0,0,7.4-1.86,9.5,9.5,0,0,0,2.4-1.72,4.85,4.85,0,0,0,1.21-2,4.09,4.09,0,0,0-1-4Zm-4.95-10.78,1.95,7.76,2.42-.61-3.88-15.41-2.42.61,1.38,5.49-5.2,1.31.55,2.16Zm-13.54-4a12.61,12.61,0,0,1,.24,7.56,14.87,14.87,0,0,1-4.15,6.37l2.06,1.18a16.8,16.8,0,0,0,3-3.76,13.83,13.83,0,0,0,1.66-4.44,16,16,0,0,0,3.5,2.65,15.72,15.72,0,0,0,4.23,1.62l1.06-2.09a16.19,16.19,0,0,1-4.71-1.79,15.83,15.83,0,0,1-3.79-3.13,15.66,15.66,0,0,0-.15-2.34,17.6,17.6,0,0,0-.5-2.46Z"/><path class="cls-16" d="M75.18,53.9A53.26,53.26,0,0,0,71.24,46l-8.3,5-1.52-2.54,11.44-6.85,1.08,1.82a56.46,56.46,0,0,1,4.51,8.9Zm-.07,3.82c2.1-1.36,4.19-2.8,6.07-4.25l1.54,2.19a98,98,0,0,1-12.8,8.88L68.06,62.1c1.23-.74,2.58-1.54,4-2.41l-3.94-6.58,3.14-1.88ZM86.57,46.16l-3,1.79L90,58.6l-3.18,1.91L73.43,38.22l3.18-1.91,5.38,9,3-1.79Z"/><path class="cls-16" d="M104.57,29.82,90.35,35.28l-1.06-2.73,5.36-2.06-.87-2.26,3.49-1.35.87,2.27,5.38-2.07Zm-3.39,12.42c-3.46,1.33-6.63.46-7.65-2.2s.76-5.4,4.22-6.73,6.63-.46,7.64,2.17-.72,5.41-4.21,6.76m-1-2.64c1.55-.59,2.39-1.61,1.92-2.85s-1.78-1.4-3.33-.8-2.39,1.61-1.92,2.82,1.75,1.44,3.33.83m-2.56,5.88,16.11-6.19,3.11,8.08-3.47,1.33-2-5.29L98.68,48.27ZM114.2,31,111,32.21l2.34,6.08-3.47,1.33L104,24.43l3.46-1.33,2.4,6.24,3.2-1.23Z"/><path class="cls-16" d="M133.53,18.7c1.82,7.74.7,14.67-7.23,21.11l-2.55-2.41c5.69-4.62,7.56-9.22,6.76-14.95l-8.4,2-.68-2.88Zm6.87-4.4,5.95,25.28-3.64.86-6-25.28Z"/><path class="cls-16" d="M166.15,23.86l.19,1.66,7-.8.76,6.69L160,33l.17,1.46,14.75-1.69.32,2.78-18.41,2.1-.78-6.78,14.11-1.61-.16-1.4-14.14,1.61-.31-2.74,7.09-.81-.19-1.66-9.75,1.12-.33-2.92,23.25-2.65.33,2.91Zm7-4.82c-4.5,0-7.88-1.29-9.76-3.46-1.36,2.54-4.38,4.59-8.76,5.57l-1.52-2.64c5.72-1.22,8.21-4.14,7.93-6.63L161,11.4l3.8-.43.06.47c.28,2.5,3.37,4.78,9.22,4.68Z"/><path class="cls-16" d="M197.32,23.85a9.81,9.81,0,0,1-5.92-5,10.09,10.09,0,0,1-6.13,5.81l-1.91-2.91a8.66,8.66,0,0,0,6-8l-5.09,0,0-3,13.91-.13,0,3-5,0a8,8,0,0,0,5.91,7.25Zm8,6.18c0,3.16-3.33,5-8.8,5.08s-8.9-1.75-8.93-4.91,3.32-5,8.83-5.07,8.87,1.75,8.9,4.9m-3.71,0c0-1.47-1.79-2.16-5.16-2.13s-5.17.76-5.15,2.22,1.79,2.16,5.19,2.13,5.14-.75,5.12-2.22m-.25-14.75-.05-6.26L205,9l.14,15.45-3.71,0-.06-6.17-3.88,0,0-3Z"/><path class="cls-16" d="M237.12,31.64l-.3,3-23.33-2.36.3-3,9.79,1,.48-4.74-7.33-.74,1.37-13.5,3.66.37-.4,4,11,1.11.4-4,3.64.37-1.37,13.49-7.3-.73-.48,4.74Zm-16.43-9.42,11,1.11.37-3.62-11-1.11Z"/><path class="cls-16" d="M268.05,31.33l-.63,2.83-22.86-5,.62-2.84,9.61,2.12.34-1.57-6.75-1.49,2.39-10.85,17.4,3.83-.61,2.75-13.8-3-.29,1.32,13.23,2.91-.58,2.64L252.89,22l-.31,1.38,14,3.08-.6,2.76-7.22-1.59-.35,1.56Zm-4.48,7.53c-.59,2.7-4.13,3.45-9.7,2.22S245.43,37.7,246,35s4.13-3.45,9.67-2.23,8.47,3.36,7.87,6.09m-3.65-.8c.23-1.05-1.29-1.85-4.81-2.62s-5.2-.68-5.43.36,1.29,1.87,4.77,2.64,5.24.66,5.47-.38"/><path class="cls-16" d="M293.13,49.63l-1,2.78-16.8-6.14,2.88-7.86,3.48,1.27-1.85,5.09ZM288,39.75a10,10,0,0,1-3.77-7,10.42,10.42,0,0,1-7.82,3.3l-.75-3.43a8.81,8.81,0,0,0,8.72-5.91l.87-2.39,3.54,1.29L287.93,28a8.18,8.18,0,0,0,2.88,9.66ZM293.76,46l-3.51-1.28L296.74,27l3.51,1.28Z"/><path class="cls-16" d="M322.8,60.14l-8.65-4.91-4,7-3.23-1.84,4-7-8.51-4.84L303.88,46l20.38,11.58Zm.25-6.08-15.64-8.88,5.68-10L316.3,37l-1.47,2.57,9.27,5.27,1.46-2.58,3.18,1.81Zm-.39-6.71-9.26-5.26-1.32,2.33,9.26,5.26Z"/><polygon class="cls-3" points="124.05 149.73 111.74 149.73 110 109.31 83.93 149.73 71.6 149.73 71.5 83.11 86.88 83.11 85.91 125.12 112.36 83.11 123.42 83.11 124.56 125.12 149 83.11 164.39 83.11 124.05 149.73"/><path class="cls-3" d="M174.45,150.26l.23-11.82h-18.6l-6.52,11.82H131.72l40.16-66.79h17.6l2.82,66.79Zm1.14-47.11-13.71,24.31H175.3Z"/><rect class="cls-1" width="390.65" height="275.6"/></g><g id="나눔바른고딕_outline" data-name="나눔바른고딕 outline"><path class="cls-17" d="M33.19,224.87a.75.75,0,0,1-.45-.16l-9-7.42a.71.71,0,0,1-.25-.48.69.69,0,0,1,.16-.52l3.76-4.57a.71.71,0,0,1,.51-.26l1.38-1.67L27.09,208a.71.71,0,0,1-.09-1l1.17-1.42a.69.69,0,0,1,.47-.25h.07a.66.66,0,0,1,.45.17l1.46,1.2a3.74,3.74,0,0,1-.12-.45,3.3,3.3,0,0,1,0-1.53,3.66,3.66,0,0,1,.73-1.39,3.49,3.49,0,0,1,1.23-1A3.67,3.67,0,0,1,34,202h0a4.35,4.35,0,0,1,1.55.27,5.27,5.27,0,0,1,1.48.87,5.11,5.11,0,0,1,1.14,1.29,4.41,4.41,0,0,1,.6,1.49,3.61,3.61,0,0,1,0,1.57,1.68,1.68,0,0,1-.09.32l1.24-1.51a.72.72,0,0,1,1-.09l1.65,1.36a.73.73,0,0,1,.25.48s0,0,0,.06a.66.66,0,0,1,.27-.09h.07a.65.65,0,0,1,.45.16l1.67,1.37a.71.71,0,0,1,.09,1l-7.26,8.81a.63.63,0,0,1-.26.2.71.71,0,0,1-.15.3l-3.94,4.78a.69.69,0,0,1-.48.25Zm1.2-6.94.17-.2a.71.71,0,0,1-.3-.15l-1.65-1.36a.7.7,0,0,1-.26-.48.73.73,0,0,1,.16-.51l.1-.12-1.43-1.18a.73.73,0,0,1-.26-.52l-.25.3a.69.69,0,0,1-.25.2.76.76,0,0,1-.12.19l-.22.27Zm1-7.76.87.55.84-1a2.44,2.44,0,0,1-.28.14A3.4,3.4,0,0,1,35.36,210.17Zm-.91-4.86a.65.65,0,0,0-.44.24.56.56,0,0,0-.15.45,1,1,0,0,0,.38.53,1.11,1.11,0,0,0,.6.3.63.63,0,0,0,.57-.71.81.81,0,0,0-.37-.56.87.87,0,0,0-.53-.25Z"/><path class="cls-18" d="M34.09,202.68a3.54,3.54,0,0,1,1.22.22,4.46,4.46,0,0,1,1.28.75,4.69,4.69,0,0,1,1,1.12,3.73,3.73,0,0,1,.5,1.26,3.14,3.14,0,0,1,0,1.26,2.84,2.84,0,0,1-2.73,2.17h0a3.38,3.38,0,0,1-1.28-.27,5.21,5.21,0,0,1-2.33-1.92,3.53,3.53,0,0,1-.5-1.2,2.48,2.48,0,0,1,0-1.21A3,3,0,0,1,32.8,203a3,3,0,0,1,1.22-.28h.07m.75,4.86h.08a1.24,1.24,0,0,0,.9-.49,1.29,1.29,0,0,0,.3-1,1.84,1.84,0,0,0-1.61-1.44h-.13a1.34,1.34,0,0,0-.92.49,1.28,1.28,0,0,0-.3,1,1.54,1.54,0,0,0,.63,1,1.72,1.72,0,0,0,1.05.46M28.71,206l1.43,1.18c.39.32.82.67,1.28,1s.94.72,1.44,1.08,1,.71,1.51,1.06,1,.68,1.5,1l-1.14,1.39c-.45-.26-.89-.54-1.34-.84s-.9-.61-1.35-.94l-1.91,2.32-1.65-1.36,1.83-2.22c-.24-.18-.46-.36-.68-.54l-.64-.53-1.45-1.19L28.71,206m11.73.73,1.65,1.36L34.71,217l-1.65-1.36.55-.67-2-1.62,1-1.27,2,1.63,5.79-7m2.7,2,1.67,1.37-7.27,8.81-1.66-1.37,7.26-8.81M28,212.17l1.79,1.48-.67.82,5.41,4.46.85-1,1.8,1.48-4,4.79-9-7.42L28,212.17m4.62,9.07.77-.94-5.42-4.47-.77.94,5.42,4.47m1.51-20H34a4.32,4.32,0,0,0-3.26,1.58,4.35,4.35,0,0,0-.87,1.66,4.76,4.76,0,0,0-.1.52l-.14-.11a1.4,1.4,0,0,0-.9-.32h-.13a1.43,1.43,0,0,0-1,.51l-1.17,1.42a1.43,1.43,0,0,0,.19,2l1.44,1.19.19.15,0,0-.77.93a1.43,1.43,0,0,0-.67.45l-3.76,4.57a1.41,1.41,0,0,0,.19,2l9,7.42a1.43,1.43,0,0,0,.9.33h.14a1.45,1.45,0,0,0,1-.51l3.94-4.78a2.11,2.11,0,0,0,.18-.27,1.67,1.67,0,0,0,.23-.23L45.9,211a1.41,1.41,0,0,0-.19-2L44,207.6a1.5,1.5,0,0,0-.78-.32A1.86,1.86,0,0,0,43,207l-1.65-1.36a1.42,1.42,0,0,0-.9-.32,1.4,1.4,0,0,0-1,.39,5.32,5.32,0,0,0-.67-1.67,6.19,6.19,0,0,0-1.3-1.47,6,6,0,0,0-1.69-1,4.87,4.87,0,0,0-1.71-.31Z"/><path class="cls-17" d="M47,234.76a.72.72,0,0,1-.4-.12l-1.88-1.27a.71.71,0,0,1-.19-1l2-2.91c-.54-.27-1.1-.57-1.69-.88s-1.35-.75-2-1.16-1.35-.81-2-1.22-1.28-.82-1.87-1.22l-2-1.35a.71.71,0,0,1-.19-1l1.16-1.72a.71.71,0,0,1,1-.19l3.23,2.18.8-1.19a5.49,5.49,0,0,1-.6-1,4.85,4.85,0,0,1-.43-1.66,5.1,5.1,0,0,1,.15-1.73,5.42,5.42,0,0,1,.77-1.66,5.33,5.33,0,0,1,1.51-1.52,5.18,5.18,0,0,1,1.88-.76,4.88,4.88,0,0,1,.93-.09,5.22,5.22,0,0,1,1.1.12,5.3,5.3,0,0,1,2,.84,5.23,5.23,0,0,1,1.5,1.5,5.06,5.06,0,0,1,.78,1.86,5.19,5.19,0,0,1,0,2,5.59,5.59,0,0,1-.84,2,5.66,5.66,0,0,1-1.23,1.3,5,5,0,0,1-3.08,1,4.74,4.74,0,0,1-1.22-.15l-.75,1.09,1.3.74c.63.35,1.24.67,1.83,1L54.91,217a.7.7,0,0,1,.59-.32.66.66,0,0,1,.4.13l1.88,1.27a.7.7,0,0,1,.19,1l-3.57,5.28,1.55,1a.71.71,0,0,1,.19,1L55,228.12a.67.67,0,0,1-.45.3l-.13,0a.71.71,0,0,1-.4-.13l-1.55-1-4.86,7.18A.7.7,0,0,1,47,234.76Zm.37-17.93a1.75,1.75,0,0,0-.32,0,1.92,1.92,0,0,0-1.15.92,1.87,1.87,0,0,0-.41,1.35,1.49,1.49,0,0,0,.7,1,1.6,1.6,0,0,0,.92.32,1.24,1.24,0,0,0,.27,0,1.79,1.79,0,0,0,1.11-.87,2,2,0,0,0,.42-1.41,1.47,1.47,0,0,0-.69-1A1.55,1.55,0,0,0,47.37,216.83Z"/><path class="cls-18" d="M47.09,214a4.61,4.61,0,0,1,1,.1,4.83,4.83,0,0,1,3,2,4.28,4.28,0,0,1,.67,1.61,4.35,4.35,0,0,1,0,1.76,4.59,4.59,0,0,1-.73,1.71,4.86,4.86,0,0,1-1.07,1.14,4.49,4.49,0,0,1-1.3.68,4.76,4.76,0,0,1-1.35.21H47.2a4.32,4.32,0,0,1-1.45-.27l-1.45,2.15c.65.39,1.31.77,2,1.13s1.29.7,1.91,1L47,228.94c-.6-.29-1.23-.62-1.89-1s-1.34-.74-2-1.14-1.34-.8-2-1.21-1.27-.81-1.85-1.2l-2-1.36,1.17-1.72,2,1.34c.28.2.58.39.89.6s.62.41.94.62l1.49-2.21a4.34,4.34,0,0,1-.84-1.26,4.1,4.1,0,0,1-.38-1.42,4.47,4.47,0,0,1,.14-1.49,4.83,4.83,0,0,1,.66-1.45,4.7,4.7,0,0,1,1.32-1.31,4.39,4.39,0,0,1,1.62-.67,4.33,4.33,0,0,1,.8-.07m0,7.14a1.84,1.84,0,0,0,.41,0,2.54,2.54,0,0,0,1.56-1.17,2.68,2.68,0,0,0,.53-1.92,2.15,2.15,0,0,0-1-1.49,2.21,2.21,0,0,0-1.24-.41,2,2,0,0,0-.48.06,2.65,2.65,0,0,0-1.58,1.21,2.49,2.49,0,0,0-.51,1.87,2.15,2.15,0,0,0,1,1.45,2.34,2.34,0,0,0,1.32.44m8.39-3.73,1.88,1.28-4,5.86L55.55,226l-1.16,1.73-2.14-1.45L47,234.05l-1.89-1.27L55.5,217.42m-8.41-4.83a6,6,0,0,0-1.05.1,5.81,5.81,0,0,0-2.15.87,6.19,6.19,0,0,0-1.71,1.71,5.86,5.86,0,0,0-1,3.85,5.63,5.63,0,0,0,.5,1.89,5,5,0,0,0,.39.72l-.14.2-.51-.34-.14-.09-2-1.35a1.43,1.43,0,0,0-2,.38l-1.16,1.72a1.42,1.42,0,0,0,.38,2l2,1.36c.6.41,1.24.82,1.89,1.23s1.33.83,2,1.23,1.38.8,2,1.17l1,.52L43.94,232a1.4,1.4,0,0,0,.38,2l1.88,1.28a1.43,1.43,0,0,0,2-.38l4.46-6.6,1,.65a1.42,1.42,0,0,0,.8.24,1.14,1.14,0,0,0,.26,0,1.43,1.43,0,0,0,.91-.6l1.16-1.72a1.42,1.42,0,0,0-.38-2l-1-.65,3.18-4.69a1.44,1.44,0,0,0-.38-2l-1.89-1.27a1.36,1.36,0,0,0-.79-.24,1.39,1.39,0,0,0-1.17.62l-1.11,1.63a5.2,5.2,0,0,0-.1-.78,5.9,5.9,0,0,0-.87-2.11,6.38,6.38,0,0,0-3.91-2.65,6.72,6.72,0,0,0-1.25-.13Zm0,7.14a.88.88,0,0,1-.52-.2.75.75,0,0,1-.4-.51,1.39,1.39,0,0,1,.3-.84,1.31,1.31,0,0,1,.71-.62l.17,0a.78.78,0,0,1,.45.17.74.74,0,0,1,.39.53,1.3,1.3,0,0,1-.31.9,1.27,1.27,0,0,1-.66.58Zm.16,4.94a6,6,0,0,0,1.78-.27h0l-.88,1.3c-.41-.21-.83-.43-1.25-.67l-.63-.35,0-.07a5.54,5.54,0,0,0,.81.07Z"/><path class="cls-17" d="M63.18,244.1a.73.73,0,0,1-.35-.09l-2-1.15a.71.71,0,0,1-.27-1l2.13-3.8-1.44.49a1,1,0,0,1-.23,0,.7.7,0,0,1-.66-.45,25.23,25.23,0,0,1-.89-2.61,14,14,0,0,1-.38-1.73,16.35,16.35,0,0,1-2.43.62,20.55,20.55,0,0,1-3.3.3h0a.71.71,0,0,1-.69-.56L52.14,232a.68.68,0,0,1,.14-.6.71.71,0,0,1,.55-.26h.36a15.41,15.41,0,0,0,2.46-.2,15.21,15.21,0,0,0,2.58-.65,11.69,11.69,0,0,0,2.13-1,6.34,6.34,0,0,0,.8-.58c-.18-.09-.37-.19-.57-.31l-3.54-2a.7.7,0,0,1-.33-.42.72.72,0,0,1,.06-.54l1-1.82a.75.75,0,0,1,.43-.33.63.63,0,0,1,.19,0,.73.73,0,0,1,.35.09l.82.46a.74.74,0,0,1,.07-.5l1-1.83a.68.68,0,0,1,.42-.34.69.69,0,0,1,.2,0,.67.67,0,0,1,.34.1l5,2.82a.7.7,0,0,1,.27,1l-1,1.83a.72.72,0,0,1-.35.32l.52.28a.7.7,0,0,1,.36.46.69.69,0,0,1-.11.57,13,13,0,0,1-2,2.27,13.66,13.66,0,0,1-1.91,1.47,10.83,10.83,0,0,0,.43,2.17c.19.64.44,1.3.72,2l6-10.64a.7.7,0,0,1,.61-.37.73.73,0,0,1,.35.09l2,1.15a.74.74,0,0,1,.34.43.7.7,0,0,1-.07.53l-9,16.19a.75.75,0,0,1-.43.33A.63.63,0,0,1,63.18,244.1Z"/><path class="cls-18" d="M61.3,221.83l5,2.83-1,1.83-5-2.82,1-1.84M58.41,224,61,225.44l2.2,1.23c.75.42,1.61.88,2.55,1.38a12.85,12.85,0,0,1-1.88,2.16,14.84,14.84,0,0,1-2.18,1.62,12,12,0,0,0,.49,2.75,25.18,25.18,0,0,0,1,2.58l-2.21.76c-.35-.89-.64-1.73-.87-2.54a13.74,13.74,0,0,1-.46-2.51,15.79,15.79,0,0,1-3.15.89,19.19,19.19,0,0,1-3.18.29l-.48-2.19h.36a15.64,15.64,0,0,0,2.57-.21,14,14,0,0,0,2.71-.69,11.54,11.54,0,0,0,2.26-1.08,6,6,0,0,0,1.6-1.37c-.35-.17-.82-.42-1.39-.74l-1.79-1-1.75-1,1-1.82m11.76,2.08,2,1.15-9,16.18-2-1.14,9-16.19m-8.87-5.64a1.31,1.31,0,0,0-.39.05,1.39,1.39,0,0,0-.85.67l-.91,1.63,0,0a1.46,1.46,0,0,0-.7-.18,1.58,1.58,0,0,0-.38.05,1.44,1.44,0,0,0-.85.68l-1,1.81a1.41,1.41,0,0,0,.55,1.93l1.75,1,0,0,1.32.74a11.15,11.15,0,0,1-1.84.85,13.94,13.94,0,0,1-2.45.62,14.15,14.15,0,0,1-2.35.19h-.36a1.43,1.43,0,0,0-1.39,1.72l.48,2.19a1.43,1.43,0,0,0,1.39,1.12h0a20.89,20.89,0,0,0,3.41-.31,17.89,17.89,0,0,0,1.76-.4c.07.34.15.67.24,1a27.44,27.44,0,0,0,.92,2.67,1.43,1.43,0,0,0,1.32.9l.17,0-1.25,2.23a1.41,1.41,0,0,0,.55,1.93l2.05,1.15a1.39,1.39,0,0,0,.69.18,1.58,1.58,0,0,0,.38-.05,1.41,1.41,0,0,0,.85-.68l9-16.18a1.45,1.45,0,0,0,.13-1.08,1.43,1.43,0,0,0-.67-.85l-2-1.14a1.36,1.36,0,0,0-.69-.19,1.43,1.43,0,0,0-1.24.73l-5.21,9.31c-.06-.17-.11-.35-.17-.52a9.33,9.33,0,0,1-.34-1.61,15.65,15.65,0,0,0,1.63-1.29,14.33,14.33,0,0,0,2.09-2.39,1.43,1.43,0,0,0,.22-1.15,1.37,1.37,0,0,0-.48-.76l.9-1.61a1.42,1.42,0,0,0-.54-1.93L62,220.6a1.39,1.39,0,0,0-.69-.18Z"/><path class="cls-17" d="M73,249.24a.87.87,0,0,1-.31-.07L71,248.33a.7.7,0,0,1-.37-.45,15.44,15.44,0,0,1-.5-2.59,15.89,15.89,0,0,1-.09-2.76,15,15,0,0,1,.38-2.76,12.09,12.09,0,0,1,2.36-4.91,14.27,14.27,0,0,1,1.89-2,17.63,17.63,0,0,1,2.2-1.63A18.07,18.07,0,0,1,79.29,230a.65.65,0,0,1,.27-.05.67.67,0,0,1,.31.07l1.74.84a.7.7,0,0,1,.4.62.72.72,0,0,1-.38.64,19.65,19.65,0,0,0-2.46,1.56,15.71,15.71,0,0,0-1.89,1.67,13.21,13.21,0,0,0-1.42,1.74,13.36,13.36,0,0,0-1,1.82A13.9,13.9,0,0,0,73.59,243a19.11,19.11,0,0,0,.14,5.39.72.72,0,0,1-.28.68A.71.71,0,0,1,73,249.24Z"/><path class="cls-18" d="M79.56,230.63l1.74.84a19.78,19.78,0,0,0-2.56,1.61,17.11,17.11,0,0,0-2,1.75,13.22,13.22,0,0,0-1.5,1.83,14.28,14.28,0,0,0-2.38,6.27,19.47,19.47,0,0,0,.14,5.6l-1.73-.84a15.35,15.35,0,0,1-.48-2.48,15.59,15.59,0,0,1-.08-2.65,14.48,14.48,0,0,1,.36-2.63,11.91,11.91,0,0,1,.85-2.44,12.29,12.29,0,0,1,1.38-2.2,12.8,12.8,0,0,1,1.79-1.89,16.41,16.41,0,0,1,4.44-2.77m0-1.42a1.54,1.54,0,0,0-.55.11,18.16,18.16,0,0,0-4.82,3,15,15,0,0,0-2,2.09,13.3,13.3,0,0,0-1.53,2.46,12.26,12.26,0,0,0-1,2.73,16.37,16.37,0,0,0-.4,2.88,19.76,19.76,0,0,0,.09,2.88,17.34,17.34,0,0,0,.52,2.71,1.43,1.43,0,0,0,.75.88l1.73.84A1.38,1.38,0,0,0,73,250a1.44,1.44,0,0,0,.84-.28,1.39,1.39,0,0,0,.56-1.35,18.06,18.06,0,0,1-.13-5.19,13.32,13.32,0,0,1,1.14-3.95,14.65,14.65,0,0,1,1-1.73,11.08,11.08,0,0,1,1.34-1.64,15.25,15.25,0,0,1,1.81-1.6A18.21,18.21,0,0,1,82,232.72a1.42,1.42,0,0,0,0-2.53l-1.74-.84a1.44,1.44,0,0,0-.62-.14Z"/><path class="cls-17" d="M87.69,253.07a.66.66,0,0,1-.27-.06l-2.35-1a.7.7,0,0,1-.42-.78l1.65-9.1L81,249.76a.7.7,0,0,1-.58.3.86.86,0,0,1-.27-.05l-2.34-1a.69.69,0,0,1-.43-.76l2.5-15.7a.73.73,0,0,1,.36-.51.67.67,0,0,1,.34-.09.63.63,0,0,1,.27.06l2.28.94a.7.7,0,0,1,.42.79l-1.71,8.78L87,235.16a.69.69,0,0,1,.58-.31.66.66,0,0,1,.27.06L90.36,236a.71.71,0,0,1,.42.78l-1.61,8.83,5-7.41a.72.72,0,0,1,.59-.31.65.65,0,0,1,.27.05l2.28.94a.74.74,0,0,1,.41.47.7.7,0,0,1-.11.61l-9.35,12.86A.72.72,0,0,1,87.69,253.07Z"/><path class="cls-18" d="M80.6,232.68l2.28.94-2.12,10.82L80.4,246l.86-1.37,6.29-9.09,2.54,1.06-2,10.86-.37,1.58.86-1.37,6.17-9.13,2.27.94-9.34,12.86-2.35-1,2-11.08.36-1.58-.86,1.38-6.42,9.24-2.34-1,2.5-15.7m0-1.42a1.39,1.39,0,0,0-.69.18,1.43,1.43,0,0,0-.71,1l-2.5,15.7a1.41,1.41,0,0,0,.85,1.53l2.35,1a1.49,1.49,0,0,0,.54.11,1.43,1.43,0,0,0,1.17-.61L85,245.25,84,251.13a1.42,1.42,0,0,0,.85,1.57l2.35,1a1.45,1.45,0,0,0,.54.11,1.43,1.43,0,0,0,1.15-.59l9.34-12.86a1.4,1.4,0,0,0,.22-1.22,1.44,1.44,0,0,0-.82-.92l-2.28-.94a1.27,1.27,0,0,0-.54-.11,1.4,1.4,0,0,0-1.17.62l-3.11,4.61,1-5.5a1.41,1.41,0,0,0-.85-1.56l-2.54-1.06a1.47,1.47,0,0,0-.54-.1,1.39,1.39,0,0,0-1.17.61l-3.18,4.59,1.07-5.45a1.41,1.41,0,0,0-.85-1.58l-2.28-.95a1.41,1.41,0,0,0-.54-.11Z"/><path class="cls-17" d="M99.31,257.14a8.5,8.5,0,0,1-2.64-.51,6.12,6.12,0,0,1-2.1-1.21,5.23,5.23,0,0,1-1.36-1.9,6,6,0,0,1-.45-2.36,7.86,7.86,0,0,1,.49-2.68,7.72,7.72,0,0,1,1.27-2.36,6.54,6.54,0,0,1,1.82-1.6,5.57,5.57,0,0,1,2.22-.71,4.41,4.41,0,0,1,.52,0,5.82,5.82,0,0,1,1.9.34,4.92,4.92,0,0,1,3.24,3,7.24,7.24,0,0,1-.26,4.83l-.27.75a.7.7,0,0,1-.36.41.64.64,0,0,1-.31.07,1,1,0,0,1-.23,0l-6.33-2.22a2.44,2.44,0,0,0,.16,1.46A2.32,2.32,0,0,0,98,253.51a3.72,3.72,0,0,0,1.26.22,2.61,2.61,0,0,0,.4,0,5.57,5.57,0,0,0,1.7-.46.91.91,0,0,1,.36-.09.88.88,0,0,1,.62.27.89.89,0,0,1,.19.91l-.66,1.87a.7.7,0,0,1-.29.37,4,4,0,0,1-2.17.56Zm1.53-8.22a1.7,1.7,0,0,0,0-.94,1.38,1.38,0,0,0-.91-.77,1.47,1.47,0,0,0-.54-.1,1.8,1.8,0,0,0-.77.18,2.53,2.53,0,0,0-.76.57Z"/><path class="cls-18" d="M99.08,244.49a5,5,0,0,1,1.67.3,4.18,4.18,0,0,1,2.8,2.55,6.48,6.48,0,0,1-.26,4.35l-.27.76L95.94,250l0,.06a3.65,3.65,0,0,0,.07,2.65,3,3,0,0,0,1.82,1.5,4.29,4.29,0,0,0,1.49.26l.48,0a6.11,6.11,0,0,0,1.91-.53l.07,0a.14.14,0,0,1,.1,0,.18.18,0,0,1,0,.19l-.66,1.87a3.28,3.28,0,0,1-1.79.45h-.12A7.79,7.79,0,0,1,96.9,256,5.5,5.5,0,0,1,95,254.89a4.42,4.42,0,0,1-1.17-1.64,5.45,5.45,0,0,1-.41-2.09,8.1,8.1,0,0,1,1.61-4.6,5.84,5.84,0,0,1,1.62-1.42,4.77,4.77,0,0,1,1.94-.63l.45,0m2.25,5.35,0-.05a2.94,2.94,0,0,0,.09-2.07,2,2,0,0,0-1.32-1.18,2.38,2.38,0,0,0-.78-.14,2.46,2.46,0,0,0-1.07.25,3.65,3.65,0,0,0-1.57,1.55v0l4.63,1.62m-2.25-6.77a5.83,5.83,0,0,0-.59,0,6.23,6.23,0,0,0-2.51.81,7.15,7.15,0,0,0-2,1.77,9.29,9.29,0,0,0-1.92,5.48,6.72,6.72,0,0,0,.51,2.64A6,6,0,0,0,94.1,256a6.89,6.89,0,0,0,2.33,1.35,9.38,9.38,0,0,0,2.86.55h.16a4.72,4.72,0,0,0,2.55-.67,1.39,1.39,0,0,0,.58-.73l.66-1.87a1.72,1.72,0,0,0,.08-.74,1.73,1.73,0,0,0,.32-.11,1.43,1.43,0,0,0,.72-.81l.27-.76a8,8,0,0,0,.26-5.3,5.6,5.6,0,0,0-3.67-3.41,6.53,6.53,0,0,0-2.14-.38Zm.22,10a3,3,0,0,1-1-.18,1.59,1.59,0,0,1-1-.8l-.06-.14,2.91,1a4,4,0,0,1-.48.08l-.33,0Z"/><path class="cls-17" d="M109.18,260.36a5.29,5.29,0,0,1-1.52-.23,3.92,3.92,0,0,1-1.66-1l-.18-.2a.73.73,0,0,1-.53.24l-.21,0-2.15-.65a.72.72,0,0,1-.48-.89l4.8-15.84a.72.72,0,0,1,.68-.51.76.76,0,0,1,.21,0l2.26.69a.71.71,0,0,1,.42.34.73.73,0,0,1,.06.54l-1.41,4.66a3.11,3.11,0,0,1,.44-.08l.53,0a5,5,0,0,1,1.44.21,4.69,4.69,0,0,1,1.71.94,4.52,4.52,0,0,1,1.16,1.63,6,6,0,0,1,.41,2.21,9,9,0,0,1-.44,2.71,9.79,9.79,0,0,1-1.21,2.66,6.41,6.41,0,0,1-1.66,1.73,4.53,4.53,0,0,1-2,.8A4.44,4.44,0,0,1,109.18,260.36Zm.86-9.68a1.37,1.37,0,0,0-.28,0,1.88,1.88,0,0,0-.73.31,2.43,2.43,0,0,0-.64.64,3.3,3.3,0,0,0-.47,1l-.52,1.73a2.1,2.1,0,0,0,0,1.61,1.64,1.64,0,0,0,1,.8,1.56,1.56,0,0,0,.46.07,1.37,1.37,0,0,0,.91-.37,5.22,5.22,0,0,0,1.29-2.42,4.55,4.55,0,0,0,.21-2.42,1.18,1.18,0,0,0-.83-.89A1.47,1.47,0,0,0,110,250.68Z"/><path class="cls-18" d="M107.93,242l2.27.69-1.86,6.14h0a3.22,3.22,0,0,1,1.63-.66,3.54,3.54,0,0,1,.46,0,4.38,4.38,0,0,1,1.24.18,3.75,3.75,0,0,1,1.44.79,3.67,3.67,0,0,1,1,1.37,5,5,0,0,1,.36,2,8.29,8.29,0,0,1-.41,2.5,9.06,9.06,0,0,1-1.11,2.46,5.8,5.8,0,0,1-1.48,1.55,3.91,3.91,0,0,1-1.73.68l-.54,0a4.53,4.53,0,0,1-1.31-.2,3.25,3.25,0,0,1-1.37-.8,2.56,2.56,0,0,1-.71-1.37h0l-.46,1.21-2.16-.65,4.8-15.85m.95,15.57a2.05,2.05,0,0,0,1.37-.54,5.89,5.89,0,0,0,1.5-2.75,5.11,5.11,0,0,0,.22-2.82,1.88,1.88,0,0,0-1.3-1.38A2.28,2.28,0,0,0,110,250a2,2,0,0,0-.41,0,2.52,2.52,0,0,0-1,.41,3.07,3.07,0,0,0-.83.82,4.37,4.37,0,0,0-.57,1.19l-.52,1.72a2.78,2.78,0,0,0,0,2.16,2.37,2.37,0,0,0,1.44,1.14,2.32,2.32,0,0,0,.67.1m-.95-17a1.41,1.41,0,0,0-1.35,1l-4.81,15.85a1.41,1.41,0,0,0,1,1.76l2.16.66a1.4,1.4,0,0,0,.41.06,1.45,1.45,0,0,0,.41-.06,4.66,4.66,0,0,0,1.76,1,5.93,5.93,0,0,0,1.72.26,5.81,5.81,0,0,0,.72-.05,5.24,5.24,0,0,0,2.36-.91,7.25,7.25,0,0,0,1.84-1.93,10.37,10.37,0,0,0,1.3-2.84,9.74,9.74,0,0,0,.47-2.92,6.66,6.66,0,0,0-.47-2.49,5.16,5.16,0,0,0-1.34-1.88,5.36,5.36,0,0,0-2-1.09,5.66,5.66,0,0,0-1.64-.24l1.1-3.64a1.4,1.4,0,0,0-.1-1.08,1.44,1.44,0,0,0-.84-.69l-2.27-.69a1.4,1.4,0,0,0-.41-.06Zm.95,15.57a.92.92,0,0,1-.26,0,.89.89,0,0,1-.6-.46,1.6,1.6,0,0,1,0-1.07l.53-1.72a2.56,2.56,0,0,1,.37-.78,1.65,1.65,0,0,1,.45-.46,1.33,1.33,0,0,1,.48-.2H110a.83.83,0,0,1,.22,0c.12,0,.25.07.35.41a3.77,3.77,0,0,1-.21,2,4.45,4.45,0,0,1-1.07,2.09.65.65,0,0,1-.45.2Z"/><path class="cls-17" d="M127,265l-.17,0-2.46-.6a.71.71,0,0,1-.54-.71l.23-9.25-4,8.32a.7.7,0,0,1-.63.4l-.17,0-2.47-.6a.71.71,0,0,1-.54-.69l.07-15.9a.72.72,0,0,1,.27-.56.78.78,0,0,1,.44-.15l.16,0,2.4.59a.72.72,0,0,1,.54.71l-.35,8.94,3.92-8.08a.71.71,0,0,1,.63-.39.47.47,0,0,1,.17,0l2.67.65a.7.7,0,0,1,.54.7l-.24,9,3.81-8.09a.72.72,0,0,1,.64-.41l.17,0,2.39.58a.73.73,0,0,1,.48.39.71.71,0,0,1,0,.62l-7.26,14.14A.71.71,0,0,1,127,265Z"/><path class="cls-18" d="M117,246l2.39.59-.43,11-.12,1.62.64-1.5,4.82-9.94,2.67.66-.29,11-.12,1.62.64-1.49,4.69-10,2.39.59L127,264.33l-2.47-.6.29-11.25.12-1.62-.64,1.49-4.92,10.12-2.47-.6L117,246m0-1.41a1.41,1.41,0,0,0-1.42,1.41l-.07,15.89a1.43,1.43,0,0,0,1.09,1.39l2.46.6a1.32,1.32,0,0,0,.34,0,1.41,1.41,0,0,0,1.27-.8l2.62-5.38-.15,6a1.4,1.4,0,0,0,1.08,1.41l2.46.61a2.09,2.09,0,0,0,.34,0,1.42,1.42,0,0,0,1.26-.77l7.26-14.14a1.42,1.42,0,0,0,0-1.24,1.4,1.4,0,0,0-.95-.79l-2.4-.58a1.24,1.24,0,0,0-.33,0,1.41,1.41,0,0,0-1.28.81l-2.37,5,.15-5.59A1.41,1.41,0,0,0,127.3,247l-2.67-.65a1.32,1.32,0,0,0-.34,0,1.41,1.41,0,0,0-1.27.8l-2.44,5,.21-5.55a1.41,1.41,0,0,0-1.08-1.43l-2.39-.58a1.24,1.24,0,0,0-.33,0Z"/><path class="cls-17" d="M140.06,267.64h-.13l-2.07-.39a.71.71,0,0,1-.57-.68l-.49.17a4.3,4.3,0,0,1-1.33.21,4.46,4.46,0,0,1-.88-.09,4.28,4.28,0,0,1-2.87-1.65,4,4,0,0,1-.54-3.16,4.38,4.38,0,0,1,1.71-2.84,5.09,5.09,0,0,1,3.11-.91l2.57,0a1.17,1.17,0,0,0-.08-.62c-.07-.15-.36-.28-.76-.35a3.17,3.17,0,0,0-.69-.07,4.63,4.63,0,0,0-.81.08,6.23,6.23,0,0,0-1.82.78,1,1,0,0,1-.46.12,1,1,0,0,1-.55-.2.89.89,0,0,1-.29-.85l.41-2.13a.7.7,0,0,1,.41-.51,8.82,8.82,0,0,1,2.27-.67,6.54,6.54,0,0,1,1-.07,8.76,8.76,0,0,1,1.57.15,4.27,4.27,0,0,1,3,1.84,5.25,5.25,0,0,1,.38,3.71l-1.44,7.53A.72.72,0,0,1,140.06,267.64Zm-3.64-6.2a1.68,1.68,0,0,0-1,.26,1.28,1.28,0,0,0-.5.85.86.86,0,0,0,.07.65,1.09,1.09,0,0,0,.68.34,1.36,1.36,0,0,0,.29,0,1.51,1.51,0,0,0,.41-.06,2.26,2.26,0,0,0,.72-.34,3,3,0,0,0,.6-.58,1.67,1.67,0,0,0,.28-.66l.09-.43Z"/><path class="cls-18" d="M137.2,254.55a7.28,7.28,0,0,1,1.43.14,3.57,3.57,0,0,1,2.58,1.5,4.52,4.52,0,0,1,.29,3.22l-1.44,7.53-2.06-.4.14-1.38h0a3.76,3.76,0,0,1-1.54.9,3.9,3.9,0,0,1-1.12.17,3.78,3.78,0,0,1-.74-.07,3.64,3.64,0,0,1-2.43-1.36,3.28,3.28,0,0,1-.42-2.63,3.66,3.66,0,0,1,1.43-2.4A4.4,4.4,0,0,1,136,259h.25l2.93.05,0-.1a2.52,2.52,0,0,0-.08-1.57,1.64,1.64,0,0,0-1.25-.72,4.67,4.67,0,0,0-.83-.08,4.29,4.29,0,0,0-.94.1,6.68,6.68,0,0,0-2,.86l-.1,0a.12.12,0,0,1-.09,0,.16.16,0,0,1-.05-.18l.41-2.12a7.84,7.84,0,0,1,2.09-.62,6.33,6.33,0,0,1,.89-.06M136,264.27a2,2,0,0,0,.59-.08,3,3,0,0,0,1-.44,3.19,3.19,0,0,0,.76-.75,2.27,2.27,0,0,0,.41-.94l.24-1.23-2.32-.1h-.16a2.45,2.45,0,0,0-1.42.39,2,2,0,0,0-.78,1.3,1.48,1.48,0,0,0,.2,1.22,1.73,1.73,0,0,0,1.1.59,2,2,0,0,0,.43,0m1.25-11.14a6.55,6.55,0,0,0-1.1.08,9.37,9.37,0,0,0-2.46.72,1.43,1.43,0,0,0-.82,1l-.4,2.12a1.59,1.59,0,0,0,.34,1.35l-.29.2a5.1,5.1,0,0,0-2,3.27,4.73,4.73,0,0,0,.66,3.71,5,5,0,0,0,3.32,1.94,5.86,5.86,0,0,0,1,.1,5.07,5.07,0,0,0,1.44-.21,1.37,1.37,0,0,0,.82.49l2.06.4.27,0a1.41,1.41,0,0,0,1.39-1.15l1.44-7.52a5.93,5.93,0,0,0-.46-4.22,4.94,4.94,0,0,0-3.53-2.16,8.52,8.52,0,0,0-1.7-.17Zm-1.6,9.66a.49.49,0,0,1,0-.11c.06-.3.16-.37.2-.4a1.1,1.1,0,0,1,.61-.14h.1l.58,0a1.72,1.72,0,0,1-.43.42,1.46,1.46,0,0,1-.49.23.66.66,0,0,1-.23,0l-.16,0-.19,0Z"/><path class="cls-17" d="M146.27,268.82a5.1,5.1,0,0,1-.87-.07,3.43,3.43,0,0,1-2.41-1.36,3.8,3.8,0,0,1-.4-2.75l1-6-1-.15a.74.74,0,0,1-.46-.29.7.7,0,0,1-.12-.53l.3-1.87a.72.72,0,0,1,.7-.6h.11l1,.16.31-1.91a.7.7,0,0,1,.29-.46.67.67,0,0,1,.41-.13h.11l2.3.37a.71.71,0,0,1,.59.81l-.31,1.91,1.9.31a.7.7,0,0,1,.59.81L150,259a.72.72,0,0,1-.28.46.7.7,0,0,1-.42.13h-.11l-1.9-.31-.93,5.72a1,1,0,0,0,0,.39l.12,0,.35,0a1.1,1.1,0,0,0,.26,0,2,2,0,0,0,.54-.21.91.91,0,0,1,.46-.13,1,1,0,0,1,.48.15.87.87,0,0,1,.35.87l-.28,1.74a.71.71,0,0,1-.34.5,3.56,3.56,0,0,1-1.39.45A5.83,5.83,0,0,1,146.27,268.82Z"/><path class="cls-18" d="M145.09,253.62l2.3.37L147,256.6l2.6.42-.31,1.87-2.6-.42-1,6.42a1.34,1.34,0,0,0,.08.86.8.8,0,0,0,.61.36,2.63,2.63,0,0,0,.47,0,1.84,1.84,0,0,0,.41,0,2.68,2.68,0,0,0,.74-.28.25.25,0,0,1,.11,0,.11.11,0,0,1,.07,0,.13.13,0,0,1,.06.17l-.28,1.74a2.73,2.73,0,0,1-1.11.35,4.36,4.36,0,0,1-.51,0,4.74,4.74,0,0,1-.75-.06,2.76,2.76,0,0,1-1.94-1.05,3.13,3.13,0,0,1-.29-2.25l1.07-6.65-1.67-.27L143,256l1.68.27.42-2.6m0-1.42a1.42,1.42,0,0,0-.83.27,1.43,1.43,0,0,0-.57.92l-.19,1.21-.28,0-.23,0a1.43,1.43,0,0,0-1.4,1.2l-.3,1.87a1.42,1.42,0,0,0,1.17,1.63l.28,0-.85,5.25a4.39,4.39,0,0,0,.51,3.25,4.09,4.09,0,0,0,2.87,1.68,7.07,7.07,0,0,0,1,.08,5,5,0,0,0,.67,0,4.17,4.17,0,0,0,1.66-.54,1.41,1.41,0,0,0,.69-1l.28-1.73a1.57,1.57,0,0,0-.67-1.58,1.5,1.5,0,0,0-.86-.26,1.62,1.62,0,0,0-.83.23l-.11.05.74-4.56,1.2.19.22,0a1.37,1.37,0,0,0,.83-.27,1.39,1.39,0,0,0,.57-.92l.31-1.88a1.41,1.41,0,0,0-1.17-1.62l-1.21-.2.2-1.2a1.42,1.42,0,0,0-1.17-1.63l-2.3-.37-.23,0Z"/><path class="cls-17" d="M154.79,270.09a6.52,6.52,0,0,1-1-.07,6.91,6.91,0,0,1-2.38-.73,5.5,5.5,0,0,1-1.82-1.52,5.8,5.8,0,0,1-1-2.24,9.2,9.2,0,0,1,.71-5.48,6.18,6.18,0,0,1,1.51-1.95A5.47,5.47,0,0,1,153,257a6.27,6.27,0,0,1,1.58-.2,6.55,6.55,0,0,1,1,.07,6.05,6.05,0,0,1,2,.58,5.47,5.47,0,0,1,1.61,1.26.68.68,0,0,1,.17.56L159,261.4a.87.87,0,0,1-.63.74.84.84,0,0,1-1-.42,3.52,3.52,0,0,0-1-1,3.13,3.13,0,0,0-1.31-.46l-.37,0a1.76,1.76,0,0,0-.66.11,1.89,1.89,0,0,0-.77.51,3.27,3.27,0,0,0-.59.95,5.79,5.79,0,0,0-.35,1.35,4,4,0,0,0,.31,2.46,2.06,2.06,0,0,0,1.68,1l.45,0a2.56,2.56,0,0,0,.89-.15,3.55,3.55,0,0,0,1.23-.8.82.82,0,0,1,.6-.25,1,1,0,0,1,.42.11.86.86,0,0,1,.42.88l-.29,2.16a.67.67,0,0,1-.27.47,4.65,4.65,0,0,1-1.93.9A5.75,5.75,0,0,1,154.79,270.09Z"/><path class="cls-18" d="M154.56,257.5a6.77,6.77,0,0,1,.89.06,5.73,5.73,0,0,1,1.73.51,4.83,4.83,0,0,1,1.4,1.1l-.28,2.14a.16.16,0,0,1-.12.15h0a.14.14,0,0,1-.12-.09,4.26,4.26,0,0,0-1.18-1.21,3.63,3.63,0,0,0-1.61-.57l-.46,0a2.66,2.66,0,0,0-.9.15,2.59,2.59,0,0,0-1.05.7,3.94,3.94,0,0,0-.72,1.16,6.39,6.39,0,0,0-.4,1.52,4.68,4.68,0,0,0,.38,2.9,2.76,2.76,0,0,0,2.21,1.34,3.56,3.56,0,0,0,.55,0,3.25,3.25,0,0,0,1.14-.19,4.32,4.32,0,0,0,1.47-1,.16.16,0,0,1,.11-.05.07.07,0,0,1,.06,0,.15.15,0,0,1,.08.17l-.29,2.16a4.09,4.09,0,0,1-1.64.77,5.18,5.18,0,0,1-1,.09,6.85,6.85,0,0,1-.88-.06,6.54,6.54,0,0,1-2.14-.66,4.53,4.53,0,0,1-1.58-1.32,4.8,4.8,0,0,1-.87-2,7.39,7.39,0,0,1-.06-2.59,7.54,7.54,0,0,1,.71-2.42,5.29,5.29,0,0,1,1.33-1.73,4.71,4.71,0,0,1,1.86-1,5.32,5.32,0,0,1,1.4-.18m0-1.42h0a6.87,6.87,0,0,0-1.77.23,6.18,6.18,0,0,0-2.41,1.25,6.65,6.65,0,0,0-1.68,2.17,9.26,9.26,0,0,0-.85,2.87,9,9,0,0,0,.08,3.08,6.37,6.37,0,0,0,1.13,2.52,6.1,6.1,0,0,0,2.05,1.71,7.9,7.9,0,0,0,2.61.82,10.1,10.1,0,0,0,1.07.07,6.41,6.41,0,0,0,1.26-.12,5.43,5.43,0,0,0,2.21-1,1.39,1.39,0,0,0,.55-.95l.29-2.16a1.56,1.56,0,0,0-.76-1.58,1.56,1.56,0,0,0-1.9.26,2.86,2.86,0,0,1-.95.63,1.93,1.93,0,0,1-.65.1,2.3,2.3,0,0,1-.36,0c-.88-.12-1.08-.48-1.15-.62a3.34,3.34,0,0,1-.22-2,4.56,4.56,0,0,1,.3-1.17,2.51,2.51,0,0,1,.45-.74,1.25,1.25,0,0,1,.49-.33,1.37,1.37,0,0,1,.42-.06H155a2.5,2.5,0,0,1,1,.35,2.79,2.79,0,0,1,.76.8,1.56,1.56,0,0,0,1.32.74,1.83,1.83,0,0,0,.4-.05,1.58,1.58,0,0,0,1.16-1.33l.29-2.14a1.48,1.48,0,0,0-.35-1.14,6.12,6.12,0,0,0-1.83-1.41,6.85,6.85,0,0,0-2.18-.66,9.77,9.77,0,0,0-1.07-.07Z"/><path class="cls-17" d="M165.64,271.05a.71.71,0,0,1-.64-.77l.7-7.11c.1-1-.08-1.39-.17-1.5a1,1,0,0,0-.83-.4h-.14a1.34,1.34,0,0,0-.52.1,1.75,1.75,0,0,0-.61.43,3,3,0,0,0-.52.83,4.71,4.71,0,0,0-.29,1.24L162,270a.7.7,0,0,1-.7.64l-2.41-.23a.7.7,0,0,1-.48-.26.74.74,0,0,1-.16-.52l1.63-16.48a.7.7,0,0,1,.7-.64l2.43.24a.7.7,0,0,1,.63.77l-.49,5,.25-.12a4,4,0,0,1,1.75-.39,3.54,3.54,0,0,1,.45,0,4,4,0,0,1,3.11,1.69,6,6,0,0,1,.7,4l-.68,7a.7.7,0,0,1-.26.48.69.69,0,0,1-.45.16Z"/><path class="cls-18" d="M160.6,253.2l2.36.23-.65,6.63h0a4.31,4.31,0,0,1,1.4-1,3.25,3.25,0,0,1,1.45-.33l.38,0a3.31,3.31,0,0,1,2.59,1.39,5.28,5.28,0,0,1,.59,3.49l-.69,7-2.34-.23.7-7.11a2.85,2.85,0,0,0-.3-2,1.77,1.77,0,0,0-1.33-.68h-.21a2.08,2.08,0,0,0-.78.15,2.42,2.42,0,0,0-.87.61,3.42,3.42,0,0,0-.65,1,5.07,5.07,0,0,0-.34,1.44l-.6,6.11-2.34-.23,1.62-16.48m0-1.41a1.41,1.41,0,0,0-1.41,1.27l-1.62,16.48a1.43,1.43,0,0,0,.31,1,1.41,1.41,0,0,0,1,.51l2.34.23h.14a1.43,1.43,0,0,0,1.41-1.28l.6-6.11a3.55,3.55,0,0,1,.24-1,2.34,2.34,0,0,1,.38-.63,1,1,0,0,1,.36-.26.7.7,0,0,1,.25,0h.07c.18,0,.29,0,.33.11h0a2.31,2.31,0,0,1,0,1l-.7,7.11a1.44,1.44,0,0,0,1.28,1.55l2.33.23H168a1.4,1.4,0,0,0,.9-.32,1.43,1.43,0,0,0,.51-1l.69-7a6.54,6.54,0,0,0-.82-4.43,4.71,4.71,0,0,0-3.63-2l-.52,0a4.6,4.6,0,0,0-1.18.14l.38-3.85A1.42,1.42,0,0,0,163.1,252l-2.36-.23Z"/><path class="cls-17" d="M169.29,273.62a.71.71,0,0,1-.51-1.14,18.78,18.78,0,0,0,2.78-4.63,13.84,13.84,0,0,0,1-4.2,13.56,13.56,0,0,0,0-2.11,13.07,13.07,0,0,0-.37-2.21,16,16,0,0,0-.82-2.38,19.27,19.27,0,0,0-1.38-2.58.73.73,0,0,1,0-.74.72.72,0,0,1,.61-.34l2,.13a.69.69,0,0,1,.52.27,18.34,18.34,0,0,1,1.49,2.29,18.07,18.07,0,0,1,1.11,2.51,15.1,15.1,0,0,1,.66,2.67,13.24,13.24,0,0,1,.11,2.74,12.2,12.2,0,0,1-.49,2.69,15.19,15.19,0,0,1-1,2.59,17.09,17.09,0,0,1-1.44,2.36,16.26,16.26,0,0,1-1.71,2,.72.72,0,0,1-.5.2Z"/><path class="cls-18" d="M170.57,254l1.93.12a16.21,16.21,0,0,1,1.42,2.2,16.69,16.69,0,0,1,1.07,2.41,13.77,13.77,0,0,1,.63,2.53,12.52,12.52,0,0,1,.11,2.59,11.45,11.45,0,0,1-.47,2.54,14.94,14.94,0,0,1-1,2.47,16.63,16.63,0,0,1-1.38,2.26,15,15,0,0,1-1.64,1.92l-1.92-.12a19.39,19.39,0,0,0,2.88-4.81,14.54,14.54,0,0,0,1.05-4.42,16.21,16.21,0,0,0,0-2.2,14.35,14.35,0,0,0-.39-2.33,16.76,16.76,0,0,0-.86-2.49,20.67,20.67,0,0,0-1.43-2.67m0-1.42a1.42,1.42,0,0,0-1.2,2.17,17.73,17.73,0,0,1,1.32,2.48,14.66,14.66,0,0,1,.79,2.27,14,14,0,0,1,.36,2.1,13.37,13.37,0,0,1,0,2,13,13,0,0,1-.95,4,18.18,18.18,0,0,1-2.68,4.45,1.43,1.43,0,0,0-.18,1.45,1.41,1.41,0,0,0,1.2.84l1.93.13h.09a1.41,1.41,0,0,0,1-.41A16.77,16.77,0,0,0,174,272a17.56,17.56,0,0,0,1.5-2.46,15.78,15.78,0,0,0,1.08-2.71,13,13,0,0,0,.52-2.84,14.09,14.09,0,0,0-.12-2.9,15.59,15.59,0,0,0-.69-2.79,17.8,17.8,0,0,0-2.71-5,1.4,1.4,0,0,0-1-.55l-1.92-.13Z"/><path class="cls-17" d="M183.4,272.18a.72.72,0,0,1-.7-.73l0-1.87a.72.72,0,0,1,.18-.47l4.55-5a14.68,14.68,0,0,0,1.1-1.33,7.49,7.49,0,0,0,.66-1.08,3.4,3.4,0,0,0,.32-.84,4.6,4.6,0,0,0,.1-.8,1.65,1.65,0,0,0-.35-1.13,1.41,1.41,0,0,0-1.11-.39h0a4,4,0,0,0-1.62.35,6.09,6.09,0,0,0-1.74,1.22.93.93,0,0,1-.61.24,1,1,0,0,1-.4-.1.86.86,0,0,1-.43-.79l0-2a.74.74,0,0,1,.23-.51,7.43,7.43,0,0,1,2.14-1.36,6.49,6.49,0,0,1,2.48-.49h.13a5.55,5.55,0,0,1,3.75,1.28,4.71,4.71,0,0,1,1.33,3.71,5.62,5.62,0,0,1-.28,1.61,7.53,7.53,0,0,1-.71,1.53,12.18,12.18,0,0,1-1,1.43c-.36.45-.74.89-1.14,1.33l-2.63,2.82,5.08.1a.7.7,0,0,1,.69.72l0,2a.77.77,0,0,1-.22.5.7.7,0,0,1-.49.2Z"/><path class="cls-18" d="M188.26,255.84h.11a4.87,4.87,0,0,1,3.29,1.09,4,4,0,0,1,1.1,3.18,4.65,4.65,0,0,1-.25,1.4,7.18,7.18,0,0,1-.63,1.39,14.17,14.17,0,0,1-.94,1.34q-.52.66-1.11,1.29l-3.67,4v0l6.63.13,0,2-9.34-.18,0-1.88,4.55-5a18.1,18.1,0,0,0,1.15-1.4,8.87,8.87,0,0,0,.72-1.17,4.31,4.31,0,0,0,.37-1,4.38,4.38,0,0,0,.11-.94,2.28,2.28,0,0,0-.5-1.59,2.07,2.07,0,0,0-1.65-.65h-.08a4.58,4.58,0,0,0-1.84.41,7.15,7.15,0,0,0-1.95,1.35.17.17,0,0,1-.12.06l-.05,0a.17.17,0,0,1-.08-.16l0-2a6.45,6.45,0,0,1,1.94-1.22,5.61,5.61,0,0,1,2.2-.44m0-1.42a7.14,7.14,0,0,0-2.75.55,8.17,8.17,0,0,0-2.34,1.48,1.39,1.39,0,0,0-.46,1l0,2a1.56,1.56,0,0,0,.82,1.44,1.54,1.54,0,0,0,.72.18,1.57,1.57,0,0,0,1-.36.24.24,0,0,0,.09-.08,5.61,5.61,0,0,1,1.55-1.08,3,3,0,0,1,1.27-.29h0c.36,0,.54.07.59.13a.92.92,0,0,1,.18.66,3.94,3.94,0,0,1-.08.67,3.1,3.1,0,0,1-.26.68,7.61,7.61,0,0,1-.6,1,13.65,13.65,0,0,1-1.05,1.27l-4.55,5a1.42,1.42,0,0,0-.37.92l0,1.88a1.42,1.42,0,0,0,1.39,1.45l9.33.18h0a1.46,1.46,0,0,0,1-.4,1.39,1.39,0,0,0,.43-1l0-2a1.41,1.41,0,0,0-1.39-1.45l-3.49-.07,1.55-1.66c.41-.45.81-.91,1.18-1.37a12.21,12.21,0,0,0,1-1.5,8.61,8.61,0,0,0,.77-1.67,6.52,6.52,0,0,0,.32-1.82,5.39,5.39,0,0,0-1.56-4.25,6.27,6.27,0,0,0-4.22-1.47Z"/><path class="cls-17" d="M199.36,272.6a4.8,4.8,0,0,1-4.15-2.15c-1-1.39-1.47-3.51-1.52-6.48s.38-5.11,1.3-6.53a4.83,4.83,0,0,1,4.19-2.29h.11a4.81,4.81,0,0,1,4.15,2.15c1,1.39,1.47,3.51,1.52,6.48s-.38,5.11-1.31,6.53a4.82,4.82,0,0,1-4.18,2.29Zm-.12-14.05c-.33,0-.81.11-1.23,1a11,11,0,0,0-.54,4.32,11.2,11.2,0,0,0,.68,4.29c.45.9.92,1,1.24,1s.82-.12,1.24-1a15.5,15.5,0,0,0-.14-8.61c-.44-.9-.92-1-1.23-1v-.7Z"/><path class="cls-18" d="M199.29,255.86a4.1,4.1,0,0,1,3.57,1.85q1.32,1.89,1.39,6.09c0,2.8-.35,4.84-1.19,6.13a4.13,4.13,0,0,1-3.6,2h-.1a4.11,4.11,0,0,1-3.57-1.86q-1.32-1.87-1.39-6.08c-.05-2.8.35-4.85,1.19-6.13a4.12,4.12,0,0,1,3.6-2h.1m.1,14.06h0a2.1,2.1,0,0,0,1.86-1.47,11.52,11.52,0,0,0,.6-4.62,11.31,11.31,0,0,0-.75-4.59,2.09,2.09,0,0,0-1.87-1.4h0a2.07,2.07,0,0,0-1.85,1.46,16.08,16.08,0,0,0,.15,9.22,2.09,2.09,0,0,0,1.87,1.4m-.1-15.48h-.12a5.57,5.57,0,0,0-4.77,2.61c-1,1.55-1.47,3.81-1.42,6.93s.59,5.37,1.65,6.88a5.56,5.56,0,0,0,4.73,2.45h.12a5.55,5.55,0,0,0,4.77-2.61c1-1.54,1.47-3.81,1.42-6.93s-.59-5.37-1.65-6.87a5.55,5.55,0,0,0-4.73-2.46Zm.1,15.48V268.5c-.08,0-.3,0-.6-.61a15,15,0,0,1-.13-8c.28-.62.51-.62.59-.63h0c.09,0,.31,0,.61.61a15.26,15.26,0,0,1,.13,8c-.28.62-.51.63-.59.63v1.42Z"/><path class="cls-17" d="M206.29,272.13a.69.69,0,0,1-.47-.18.71.71,0,0,1-.23-.49l-.1-1.88a.67.67,0,0,1,.15-.47l4.17-5.33a15.67,15.67,0,0,0,1-1.41,8.62,8.62,0,0,0,.58-1.11,3.9,3.9,0,0,0,.25-.87,3.73,3.73,0,0,0,0-.81,1.63,1.63,0,0,0-.42-1.1,1.31,1.31,0,0,0-1-.31h-.16a3.91,3.91,0,0,0-1.6.47,6.12,6.12,0,0,0-1.65,1.34.85.85,0,0,1-1,.21.86.86,0,0,1-.49-.76l-.1-1.95a.69.69,0,0,1,.2-.53,7.28,7.28,0,0,1,2-1.5,6.45,6.45,0,0,1,2.56-.68h.47a5.24,5.24,0,0,1,3.36,1,4.67,4.67,0,0,1,1.6,3.6,5.36,5.36,0,0,1-.17,1.63,7.59,7.59,0,0,1-.59,1.58,12.1,12.1,0,0,1-.88,1.49c-.33.48-.68.94-1.05,1.4l-2.41,3,5.1-.26a.7.7,0,0,1,.48.18.69.69,0,0,1,.23.49l.11,2a.72.72,0,0,1-.68.75Z"/><path class="cls-18" d="M210.55,255.47a4.59,4.59,0,0,1,2.92.86,4,4,0,0,1,1.33,3.09,4.6,4.6,0,0,1-.14,1.42,6.75,6.75,0,0,1-.54,1.43,12,12,0,0,1-.83,1.4c-.32.47-.66.92-1,1.37l-3.37,4.2v0l6.61-.34.11,2-9.33.49-.09-1.87,4.17-5.33a15,15,0,0,0,1-1.48,8.9,8.9,0,0,0,.63-1.21,3.86,3.86,0,0,0,.3-1,4.3,4.3,0,0,0,.05-.94,2.3,2.3,0,0,0-.62-1.55,2,2,0,0,0-1.49-.54h-.2a4.69,4.69,0,0,0-1.89.55,7,7,0,0,0-1.84,1.49.22.22,0,0,1-.12.06h-.05c-.06,0-.08-.07-.09-.15l-.1-2a6.62,6.62,0,0,1,1.84-1.36,5.59,5.59,0,0,1,2.28-.6h.43m0-1.42h-.5a7.3,7.3,0,0,0-2.85.75,8.21,8.21,0,0,0-2.23,1.66,1.4,1.4,0,0,0-.39,1l.11,2a1.57,1.57,0,0,0,.92,1.38,1.69,1.69,0,0,0,.63.13,1.6,1.6,0,0,0,1.08-.44l.08-.08a5.3,5.3,0,0,1,1.47-1.19,3,3,0,0,1,1.3-.39h.12a.72.72,0,0,1,.47.1.89.89,0,0,1,.22.64,3,3,0,0,1,0,.66,3.14,3.14,0,0,1-.2.7,8.67,8.67,0,0,1-.54,1,15.22,15.22,0,0,1-1,1.34l-4.18,5.33a1.42,1.42,0,0,0-.3.95l.1,1.88a1.45,1.45,0,0,0,.47,1,1.43,1.43,0,0,0,.94.36h.08l9.32-.49a1.42,1.42,0,0,0,1.34-1.49l-.1-2a1.41,1.41,0,0,0-1.42-1.34h-.07l-3.49.18,1.42-1.77c.39-.48.75-1,1.08-1.45a13.68,13.68,0,0,0,.94-1.58,8.15,8.15,0,0,0,.64-1.72,6,6,0,0,0,.19-1.83,5.35,5.35,0,0,0-1.86-4.12,6,6,0,0,0-3.81-1.18Z"/><path class="cls-17" d="M221.68,271.14a.71.71,0,0,1-.7-.65l-1-11.69-.17.11a11.71,11.71,0,0,1-1.29.76.92.92,0,0,1-.43.11.83.83,0,0,1-.83-.82l-.13-1.45a.71.71,0,0,1,.35-.69,5.46,5.46,0,0,0,1.25-.94,7.28,7.28,0,0,0,1-1.26.71.71,0,0,1,.53-.32l2.42-.21a.72.72,0,0,1,.71.64l1.38,15.42a.69.69,0,0,1-.16.52.75.75,0,0,1-.48.25Z"/><path class="cls-18" d="M222.66,254.8,224,270.22l-2.35.21-1.17-13h0a7.88,7.88,0,0,1-1.13.93c-.42.27-.83.51-1.22.71l-.11,0c-.08,0-.12-.05-.13-.17l-.13-1.46a6.23,6.23,0,0,0,1.4-1.06A8.17,8.17,0,0,0,220.3,255l2.36-.21m0-1.42h-.12l-2.36.21a1.41,1.41,0,0,0-1.06.63,7.38,7.38,0,0,1-.94,1.15,5.42,5.42,0,0,1-1.09.83,1.4,1.4,0,0,0-.72,1.36l.13,1.45a1.54,1.54,0,0,0,1.54,1.47,1.61,1.61,0,0,0,.79-.21l.5-.27.94,10.54a1.42,1.42,0,0,0,1.41,1.29h.13l2.36-.21a1.45,1.45,0,0,0,1-.51,1.42,1.42,0,0,0,.33-1l-1.39-15.42a1.41,1.41,0,0,0-1.41-1.29Z"/><path class="cls-17" d="M230.62,270.51a2.23,2.23,0,0,1-1.44-.51,2.26,2.26,0,0,1-.85-1.54,2.33,2.33,0,0,1,2-2.61l.3,0a2.22,2.22,0,0,1,1.45.53,2.34,2.34,0,0,1-1.2,4.14Z"/><path class="cls-18" d="M230.67,266.54a1.52,1.52,0,0,1,1,.36,1.64,1.64,0,0,1,.27,2.28,1.56,1.56,0,0,1-1.11.61h-.21a1.5,1.5,0,0,1-1-.35,1.56,1.56,0,0,1-.6-1.08,1.62,1.62,0,0,1,.33-1.19,1.52,1.52,0,0,1,1.09-.63h.22m0-1.42-.39,0a2.94,2.94,0,0,0-2.06,1.18,3.06,3.06,0,0,0-.6,2.21,3,3,0,0,0,1.11,2,3,3,0,0,0,1.89.67l.38,0a3,3,0,0,0,2.06-1.16,3,3,0,0,0,.62-2.21,3.1,3.1,0,0,0-1.1-2,3,3,0,0,0-1.91-.69Z"/><path class="cls-17" d="M238.89,269.14a.76.76,0,0,1-.43-.14.67.67,0,0,1-.27-.46l-1.71-11.62-.17.13a11.66,11.66,0,0,1-1.24.83,1,1,0,0,1-.48.14.84.84,0,0,1-.82-.78l-.22-1.44a.73.73,0,0,1,.32-.71,5.45,5.45,0,0,0,1.19-1,7.59,7.59,0,0,0,1-1.31.71.71,0,0,1,.51-.35l2.34-.35H239a.66.66,0,0,1,.42.15.7.7,0,0,1,.28.46L241.93,268a.71.71,0,0,1-.6.8l-2.34.35Z"/><path class="cls-18" d="M239,252.77l2.25,15.32-2.34.34L237,255.49h0a7.29,7.29,0,0,1-1.08,1,10.71,10.71,0,0,1-1.16.78.27.27,0,0,1-.13.05c-.06,0-.11-.06-.12-.17l-.22-1.45a6.28,6.28,0,0,0,1.34-1.13,8.48,8.48,0,0,0,1-1.44l2.35-.35m0-1.41h-.21l-2.34.35a1.4,1.4,0,0,0-1,.69,7.34,7.34,0,0,1-.87,1.2,5.27,5.27,0,0,1-1,.89,1.42,1.42,0,0,0-.64,1.4l.21,1.44a1.55,1.55,0,0,0,1.53,1.38,1.63,1.63,0,0,0,.85-.24c.17-.09.33-.2.51-.31l1.53,10.47a1.42,1.42,0,0,0,1.41,1.21h.2l2.34-.35a1.42,1.42,0,0,0,1.2-1.61l-2.25-15.31a1.44,1.44,0,0,0-.56-.93,1.35,1.35,0,0,0-.84-.28Z"/><path class="cls-17" d="M247.7,268a2.35,2.35,0,0,1-.39-4.65l.44,0a2.27,2.27,0,0,1,1.35.44,2.33,2.33,0,0,1,.94,1.5,2.34,2.34,0,0,1-1.91,2.7A2.15,2.15,0,0,1,247.7,268Z"/><path class="cls-18" d="M247.75,264a1.57,1.57,0,0,1,.93.31,1.65,1.65,0,0,1,.66,1.05,1.58,1.58,0,0,1-.26,1.21,1.55,1.55,0,0,1-1.07.67l-.31,0a1.51,1.51,0,0,1-.91-.3,1.53,1.53,0,0,1-.66-1,1.59,1.59,0,0,1,.26-1.21,1.53,1.53,0,0,1,1.05-.69l.31,0m0-1.41h0a2.71,2.71,0,0,0-.56.05,2.9,2.9,0,0,0-2,1.29,3,3,0,0,0-.48,2.25,3.06,3.06,0,0,0,3,2.51,3.41,3.41,0,0,0,.55-.05,3,3,0,0,0-.5-6.05Z"/><path class="cls-17" d="M256,266.16a.72.72,0,0,1-.7-.57l-2.38-11.49-.16.13a10.07,10.07,0,0,1-1.19.9.87.87,0,0,1-.52.17.84.84,0,0,1-.82-.73l-.3-1.43a.72.72,0,0,1,.28-.71,6.08,6.08,0,0,0,1.13-1.08,7.68,7.68,0,0,0,.88-1.38.71.71,0,0,1,.49-.37l2.32-.48.14,0a.73.73,0,0,1,.7.57L259,264.82a.73.73,0,0,1-.1.54.72.72,0,0,1-.45.3l-2.32.48Z"/><path class="cls-18" d="M255.16,249.81,258.31,265l-2.32.48-2.66-12.81h0a7.22,7.22,0,0,1-1,1.05,10,10,0,0,1-1.12.85.27.27,0,0,1-.13.05c-.06,0-.1-.05-.13-.16l-.29-1.43a6.61,6.61,0,0,0,1.27-1.21,8.43,8.43,0,0,0,1-1.5l2.32-.48m0-1.42-.29,0-2.31.48a1.41,1.41,0,0,0-1,.76,6.73,6.73,0,0,1-.8,1.24,4.68,4.68,0,0,1-1,.95,1.42,1.42,0,0,0-.56,1.44l.3,1.43A1.54,1.54,0,0,0,251,256a1.61,1.61,0,0,0,.92-.29l.49-.34,2.15,10.36a1.43,1.43,0,0,0,1.39,1.13l.29,0,2.32-.49a1.36,1.36,0,0,0,.89-.61,1.41,1.41,0,0,0,.21-1.06l-3.15-15.16a1.41,1.41,0,0,0-.61-.89,1.36,1.36,0,0,0-.78-.24Z"/><path class="cls-17" d="M263.06,258.33a.88.88,0,0,1-.86-.71l-.52-2a.78.78,0,0,1,0-.34,3.62,3.62,0,0,1,.95-1.73,3.53,3.53,0,0,1,1.65-.93,4.3,4.3,0,0,1,1-.13,4,4,0,0,1,1.8.44,6.65,6.65,0,0,0,.82.34.52.52,0,0,0,.18,0,1.47,1.47,0,0,0,.27,0,1.13,1.13,0,0,0,.68-.45,2.29,2.29,0,0,0,.41-.94.92.92,0,0,1,.87-.77h0a.9.9,0,0,1,.88.7l.52,2a1,1,0,0,1,0,.34,3.56,3.56,0,0,1-1,1.73,3.5,3.5,0,0,1-1.64.93,4.4,4.4,0,0,1-1,.13l-.42,0a3.75,3.75,0,0,1-1.4-.43,3.29,3.29,0,0,0-.78-.35.52.52,0,0,0-.18,0,1.47,1.47,0,0,0-.27,0,1.12,1.12,0,0,0-.67.45,2.26,2.26,0,0,0-.42,1,.92.92,0,0,1-.87.77Z"/><path class="cls-18" d="M270.34,251.78c.09,0,.14.06.17.17l.52,2a2.8,2.8,0,0,1-2.08,2.13,3.56,3.56,0,0,1-.86.11l-.35,0a3,3,0,0,1-1.14-.34,4.35,4.35,0,0,0-.92-.42,1.5,1.5,0,0,0-.37,0,1.86,1.86,0,0,0-.45.06,1.89,1.89,0,0,0-1.07.72,3.09,3.09,0,0,0-.54,1.24c0,.13-.09.2-.18.2h0c-.09,0-.15-.06-.17-.17l-.52-2a2.87,2.87,0,0,1,.76-1.39,2.8,2.8,0,0,1,1.32-.74,3.46,3.46,0,0,1,.84-.11,3.37,3.37,0,0,1,1.49.36,6.5,6.5,0,0,0,.92.39,1.23,1.23,0,0,0,.39.06,1.78,1.78,0,0,0,.44-.06,1.92,1.92,0,0,0,1.07-.71,3.12,3.12,0,0,0,.55-1.23c0-.13.09-.2.18-.2h0m0-1.42h0a1.61,1.61,0,0,0-1.52,1.28.13.13,0,0,0,0,.06,1.59,1.59,0,0,1-.29.66.49.49,0,0,1-.29.18l-.09,0a6.85,6.85,0,0,1-.7-.3,4.71,4.71,0,0,0-2.1-.51,4.85,4.85,0,0,0-1.19.15,4.27,4.27,0,0,0-3.11,3.18,1.42,1.42,0,0,0,0,.68l.51,2a1.6,1.6,0,0,0,1.55,1.24h.05a1.61,1.61,0,0,0,1.52-1.28s0,0,0-.06a1.73,1.73,0,0,1,.29-.68.47.47,0,0,1,.28-.18l.1,0a4,4,0,0,1,.59.28,4.48,4.48,0,0,0,1.7.52,4.1,4.1,0,0,0,.49,0,4.94,4.94,0,0,0,1.21-.14,4.31,4.31,0,0,0,3.11-3.18,1.42,1.42,0,0,0,0-.68l-.51-2a1.62,1.62,0,0,0-1.55-1.24Z"/><path class="cls-17" d="M276.21,261.27a.64.64,0,0,1-.33-.08.73.73,0,0,1-.35-.42L275,259a.72.72,0,0,1,0-.5l2.78-6.16a13.32,13.32,0,0,0,.64-1.61,8.74,8.74,0,0,0,.31-1.22,3.56,3.56,0,0,0,0-.91,3.45,3.45,0,0,0-.15-.79,1.58,1.58,0,0,0-.67-1,.93.93,0,0,0-.54-.14,2.28,2.28,0,0,0-.64.1,3.94,3.94,0,0,0-1.44.84,6.15,6.15,0,0,0-1.29,1.69.88.88,0,0,1-.75.46l-.17,0a.86.86,0,0,1-.65-.61l-.57-1.88a.73.73,0,0,1,.07-.56,7.1,7.1,0,0,1,1.62-1.94,6.3,6.3,0,0,1,2.33-1.27,7,7,0,0,1,2-.33,4.28,4.28,0,0,1,4.32,3.52,5.42,5.42,0,0,1,.23,1.62,8,8,0,0,1-.2,1.67,10.86,10.86,0,0,1-.51,1.66c-.2.54-.43,1.08-.68,1.62l-1.63,3.49,4.86-1.46a.76.76,0,0,1,.21,0,.72.72,0,0,1,.67.51l.58,1.91a.71.71,0,0,1-.47.88l-8.94,2.69Z"/><path class="cls-18" d="M278,243.87a3.84,3.84,0,0,1,1.62.33,4,4,0,0,1,2,2.69,4.62,4.62,0,0,1,.2,1.41,6.62,6.62,0,0,1-.18,1.51,12.22,12.22,0,0,1-.48,1.57c-.2.53-.42,1.05-.66,1.57l-2.28,4.88v0l6.35-1.91.57,1.91-8.94,2.7-.54-1.8,2.79-6.17a15.76,15.76,0,0,0,.67-1.68,8.65,8.65,0,0,0,.33-1.34,4.38,4.38,0,0,0,0-1.07,4.51,4.51,0,0,0-.18-.93,2.32,2.32,0,0,0-1-1.36,1.65,1.65,0,0,0-.92-.25,3,3,0,0,0-.85.13,4.62,4.62,0,0,0-1.7,1,7,7,0,0,0-1.44,1.88c0,.06-.08.09-.13.09h0c-.06,0-.1-.05-.12-.13l-.57-1.88a6.78,6.78,0,0,1,1.47-1.75,5.5,5.5,0,0,1,2.07-1.13,6.41,6.41,0,0,1,1.84-.3m0-1.42a7.85,7.85,0,0,0-2.25.36,7.14,7.14,0,0,0-2.58,1.41,8,8,0,0,0-1.78,2.13,1.39,1.39,0,0,0-.12,1.11l.56,1.88a1.56,1.56,0,0,0,1.21,1.11,1.43,1.43,0,0,0,.29,0,1.55,1.55,0,0,0,1.31-.72.6.6,0,0,0,.06-.11,5.83,5.83,0,0,1,1.14-1.5,3.17,3.17,0,0,1,1.17-.69,1.85,1.85,0,0,1,.44-.08.23.23,0,0,1,.16,0,.84.84,0,0,1,.37.57,3.25,3.25,0,0,1,.13.65,2.69,2.69,0,0,1,0,.73,6.79,6.79,0,0,1-.27,1.11,13.05,13.05,0,0,1-.61,1.53l-2.79,6.17a1.41,1.41,0,0,0-.07,1l.55,1.8a1.36,1.36,0,0,0,.68.84,1.34,1.34,0,0,0,.67.17,1.4,1.4,0,0,0,.41-.06l8.94-2.69a1.41,1.41,0,0,0,.95-1.76l-.58-1.92a1.42,1.42,0,0,0-.68-.84,1.45,1.45,0,0,0-.67-.17,1.4,1.4,0,0,0-.41.06l-3.35,1,1-2.06c.26-.56.5-1.12.71-1.67a13,13,0,0,0,.53-1.75,8.87,8.87,0,0,0,.22-1.82,6.09,6.09,0,0,0-.26-1.83,5.32,5.32,0,0,0-2.79-3.56,5.18,5.18,0,0,0-2.21-.47Z"/><path class="cls-17" d="M290.15,257a4.85,4.85,0,0,1-2.94-1c-1.36-1-2.5-2.87-3.47-5.68s-1.25-5-.82-6.6a4.83,4.83,0,0,1,3.26-3.49,5.45,5.45,0,0,1,1.78-.32,4.79,4.79,0,0,1,2.94,1c1.36,1,2.5,2.87,3.48,5.68s1.24,5,.81,6.6a4.83,4.83,0,0,1-3.26,3.49A5.4,5.4,0,0,1,290.15,257Zm-2.49-13.66a.92.92,0,0,0-.36.07c-.3.1-.72.36-.83,1.37a15.48,15.48,0,0,0,2.83,8.13,1.72,1.72,0,0,0,1.16.63h0a.91.91,0,0,0,.35-.07c.31-.1.73-.36.83-1.37a10.77,10.77,0,0,0-.84-4.27,11.13,11.13,0,0,0-2-3.87A1.74,1.74,0,0,0,287.66,243.31Z"/><path class="cls-18" d="M288,240.56a4.13,4.13,0,0,1,2.52.88q1.84,1.38,3.23,5.35c.92,2.64,1.18,4.71.79,6.19a4.12,4.12,0,0,1-2.8,3,4.58,4.58,0,0,1-1.55.28,4.13,4.13,0,0,1-2.52-.88c-1.23-.92-2.3-2.71-3.22-5.35s-1.19-4.71-.8-6.19a4.12,4.12,0,0,1,2.81-3,4.53,4.53,0,0,1,1.54-.28m2.5,13.66a1.7,1.7,0,0,0,.58-.11,2.08,2.08,0,0,0,1.31-2,16,16,0,0,0-3-8.7,2.34,2.34,0,0,0-1.65-.84,1.71,1.71,0,0,0-.59.11,2.09,2.09,0,0,0-1.31,2,16,16,0,0,0,3,8.7,2.36,2.36,0,0,0,1.66.84M288,239.14h0a6,6,0,0,0-2,.36,5.56,5.56,0,0,0-3.71,4c-.47,1.78-.2,4.07.83,7s2.24,4.91,3.71,6a5.52,5.52,0,0,0,3.37,1.17,6,6,0,0,0,2-.36,5.56,5.56,0,0,0,3.71-4c.47-1.78.2-4.07-.83-7s-2.24-4.91-3.71-6a5.52,5.52,0,0,0-3.37-1.17Zm2.5,13.66a1.19,1.19,0,0,1-.65-.41,15.18,15.18,0,0,1-2.64-7.56c.08-.68.29-.76.36-.78l.13,0a1.14,1.14,0,0,1,.64.41,9.89,9.89,0,0,1,1.83,3.6,10,10,0,0,1,.81,4c-.07.68-.28.76-.36.78l-.12,0Z"/><path class="cls-17" d="M298.15,254.05a.67.67,0,0,1-.28-.06.69.69,0,0,1-.38-.39l-.7-1.74a.78.78,0,0,1,0-.5L299,245a13.68,13.68,0,0,0,.49-1.66,8.31,8.31,0,0,0,.2-1.24,3.68,3.68,0,0,0,0-.9,4.44,4.44,0,0,0-.22-.78,1.64,1.64,0,0,0-.76-.9.85.85,0,0,0-.43-.1,2.1,2.1,0,0,0-.75.17,3.86,3.86,0,0,0-1.36,1,6.11,6.11,0,0,0-1.13,1.8.89.89,0,0,1-.78.53.91.91,0,0,1-.8-.57l-.73-1.82a.73.73,0,0,1,0-.56,7.16,7.16,0,0,1,1.45-2.08,6.49,6.49,0,0,1,2.2-1.47,6.72,6.72,0,0,1,2.47-.52,4.36,4.36,0,0,1,1.49.25A4.7,4.7,0,0,1,303,239a5.65,5.65,0,0,1,.36,1.6,7.32,7.32,0,0,1-.05,1.68A11,11,0,0,1,303,244c-.15.55-.33,1.11-.54,1.67l-1.31,3.62,4.71-1.88a.63.63,0,0,1,.26-.05.71.71,0,0,1,.66.44l.75,1.86a.77.77,0,0,1,0,.54.76.76,0,0,1-.39.38L298.41,254A.75.75,0,0,1,298.15,254.05Z"/><path class="cls-18" d="M298.84,236.53a3.69,3.69,0,0,1,1.25.21,4,4,0,0,1,2.25,2.5,4.79,4.79,0,0,1,.32,1.39,7.09,7.09,0,0,1-.05,1.52,10.39,10.39,0,0,1-.34,1.6c-.15.55-.33,1.09-.52,1.62l-1.84,5.07v0l6.15-2.46.75,1.85-8.67,3.47-.7-1.75,2.24-6.38a17.52,17.52,0,0,0,.52-1.74,10,10,0,0,0,.21-1.35,4.63,4.63,0,0,0-.06-1.08,4.36,4.36,0,0,0-.26-.91,2.29,2.29,0,0,0-1.08-1.27,1.61,1.61,0,0,0-.76-.18,2.84,2.84,0,0,0-1,.22,4.58,4.58,0,0,0-1.62,1.13,7.3,7.3,0,0,0-1.26,2c0,.07-.08.11-.13.11h0a.19.19,0,0,1-.13-.12l-.72-1.82a6.47,6.47,0,0,1,1.3-1.88,5.76,5.76,0,0,1,2-1.31,5.92,5.92,0,0,1,2.2-.48m0-1.41a7.29,7.29,0,0,0-2.73.58,6.93,6.93,0,0,0-2.45,1.63,7.85,7.85,0,0,0-1.58,2.28,1.43,1.43,0,0,0,0,1.11l.73,1.82a1.57,1.57,0,0,0,1.33,1h.13a1.54,1.54,0,0,0,1.37-.84l.06-.11a5.56,5.56,0,0,1,1-1.6,3,3,0,0,1,1.1-.78,1.26,1.26,0,0,1,.49-.12c.07,0,.1,0,.11,0a.94.94,0,0,1,.42.53,3.26,3.26,0,0,1,.18.65,2.79,2.79,0,0,1,0,.73,7,7,0,0,1-.18,1.13,15,15,0,0,1-.47,1.57l-2.24,6.39a1.49,1.49,0,0,0,0,1l.7,1.75a1.47,1.47,0,0,0,.76.77,1.38,1.38,0,0,0,.56.12,1.61,1.61,0,0,0,.53-.1l8.66-3.47a1.42,1.42,0,0,0,.78-.76,1.4,1.4,0,0,0,0-1.08l-.74-1.86a1.4,1.4,0,0,0-1.32-.89,1.37,1.37,0,0,0-.52.1L302.3,248l.78-2.14c.21-.57.39-1.15.56-1.72a13.26,13.26,0,0,0,.37-1.79,8.09,8.09,0,0,0,.06-1.83,6,6,0,0,0-.42-1.81,5.35,5.35,0,0,0-3.09-3.3,5.18,5.18,0,0,0-1.72-.29Z"/><path class="cls-17" d="M312.44,248.08a.74.74,0,0,1-.25-.05.69.69,0,0,1-.4-.37L306.93,237l-.12.17a12.56,12.56,0,0,1-1,1.14.84.84,0,0,1-1.43-.25l-.6-1.33a.7.7,0,0,1,.11-.76,5.82,5.82,0,0,0,.86-1.31,7.58,7.58,0,0,0,.56-1.53.68.68,0,0,1,.39-.47l2.15-1a.66.66,0,0,1,.3-.07.74.74,0,0,1,.25,0,.68.68,0,0,1,.39.37l6.42,14.08a.71.71,0,0,1-.35.94l-2.16,1A.59.59,0,0,1,312.44,248.08Z"/><path class="cls-18" d="M308.18,232.3l6.41,14.09-2.15,1L307,235.47h0a7.32,7.32,0,0,1-.76,1.25,10,10,0,0,1-.91,1.07c-.05.06-.09.09-.13.09s-.1,0-.14-.14l-.61-1.33a6.09,6.09,0,0,0,1-1.46,8.11,8.11,0,0,0,.6-1.67l2.16-1m0-1.42a1.53,1.53,0,0,0-.59.13l-2.15,1a1.4,1.4,0,0,0-.79.95,7.78,7.78,0,0,1-.5,1.4,5.52,5.52,0,0,1-.76,1.14,1.41,1.41,0,0,0-.23,1.52l.61,1.33a1.55,1.55,0,0,0,2.59.44c.14-.14.27-.29.4-.44l4.39,9.63a1.47,1.47,0,0,0,.79.74,1.43,1.43,0,0,0,.5.09,1.53,1.53,0,0,0,.59-.13l2.15-1a1.42,1.42,0,0,0,.7-1.88l-6.41-14.09a1.43,1.43,0,0,0-.79-.74,1.47,1.47,0,0,0-.5-.09Z"/><path class="cls-17" d="M320.21,244.55a2.25,2.25,0,0,1-.76-.13,2.34,2.34,0,0,1-1.33-1.16,2.31,2.31,0,0,1-.14-1.77,2.27,2.27,0,0,1,1.18-1.38,2.33,2.33,0,0,1,1-.26,2.28,2.28,0,0,1,.77.14,2.33,2.33,0,0,1,1.33,1.17,2.34,2.34,0,0,1-1.06,3.14A2.44,2.44,0,0,1,320.21,244.55Z"/><path class="cls-18" d="M320.21,240.56a1.66,1.66,0,0,1,.53.1,1.59,1.59,0,0,1,.94.82,1.63,1.63,0,0,1,.09,1.23,1.7,1.7,0,0,1-1.56,1.13,1.58,1.58,0,0,1-.52-.09,1.56,1.56,0,0,1-.93-.81,1.62,1.62,0,0,1-.1-1.24,1.5,1.5,0,0,1,.81-.95,1.57,1.57,0,0,1,.74-.19m0-1.41a3,3,0,0,0-1.37.33,3,3,0,0,0-1.54,1.81,3.05,3.05,0,0,0,.19,2.28,3,3,0,0,0,1.73,1.52,3.12,3.12,0,0,0,1,.17,3,3,0,0,0,1.36-.33,3,3,0,0,0,1.37-4.09,3,3,0,0,0-1.72-1.52,3.2,3.2,0,0,0-1-.17Z"/><path class="cls-17" d="M328.13,240.27a.72.72,0,0,1-.62-.37l-5.66-10.29-.11.18a12.2,12.2,0,0,1-.87,1.21.84.84,0,0,1-1.45-.14l-.7-1.28a.7.7,0,0,1,0-.77,5.65,5.65,0,0,0,.76-1.36,7.79,7.79,0,0,0,.44-1.57.69.69,0,0,1,.36-.5l2.07-1.15a.81.81,0,0,1,.34-.08l.2,0a.75.75,0,0,1,.42.34l7.47,13.57a.7.7,0,0,1,.06.53.74.74,0,0,1-.34.43l-2.08,1.14A.67.67,0,0,1,328.13,240.27Z"/><path class="cls-18" d="M322.74,224.85l7.47,13.57-2.08,1.14-6.3-11.46h0a7.62,7.62,0,0,1-.67,1.3,12,12,0,0,1-.82,1.14c-.05.06-.09.09-.14.09s-.09,0-.14-.12l-.7-1.28a6.36,6.36,0,0,0,.85-1.53,8.72,8.72,0,0,0,.48-1.71l2.07-1.15m0-1.41a1.46,1.46,0,0,0-.68.17L320,224.76a1.39,1.39,0,0,0-.71,1,7,7,0,0,1-.39,1.43,5.86,5.86,0,0,1-.67,1.2,1.4,1.4,0,0,0-.11,1.53l.7,1.28a1.58,1.58,0,0,0,1.38.86,1.56,1.56,0,0,0,1.24-.62l.37-.47,5.1,9.27a1.41,1.41,0,0,0,1.93.56l2.07-1.14a1.42,1.42,0,0,0,.56-1.93L324,224.17a1.42,1.42,0,0,0-.84-.68,1.75,1.75,0,0,0-.4-.05Z"/><path class="cls-17" d="M334.84,236.5a.68.68,0,0,1-.6-.33l-1-1.6a.63.63,0,0,1-.1-.48l1.08-6.68a16.32,16.32,0,0,0,.19-1.72,8.36,8.36,0,0,0,0-1.26,3.48,3.48,0,0,0-.19-.88,4.13,4.13,0,0,0-.36-.73,1.72,1.72,0,0,0-.9-.76,1,1,0,0,0-.26,0,1.76,1.76,0,0,0-.89.31,3.87,3.87,0,0,0-1.17,1.18,6.45,6.45,0,0,0-.8,2,.86.86,0,0,1-.77.66h0a.86.86,0,0,1-.79-.42l-1-1.67a.7.7,0,0,1-.08-.55,7.13,7.13,0,0,1,1.05-2.3,6.34,6.34,0,0,1,1.92-1.83,6,6,0,0,1,3.14-1,4,4,0,0,1,.7.06,4.68,4.68,0,0,1,3.13,2.38,5.39,5.39,0,0,1,.65,1.51A7.56,7.56,0,0,1,338,224a11.22,11.22,0,0,1-.05,1.73c-.06.57-.14,1.16-.24,1.74l-.66,3.81,4.31-2.69a.76.76,0,0,1,.38-.11.72.72,0,0,1,.6.34l1.06,1.69a.73.73,0,0,1,.08.54.7.7,0,0,1-.31.44l-7.92,4.94A.75.75,0,0,1,334.84,236.5Z"/><path class="cls-18" d="M333.25,219.07a3.68,3.68,0,0,1,.58.05,4,4,0,0,1,2.65,2.06,4.4,4.4,0,0,1,.56,1.31,6.71,6.71,0,0,1,.22,1.51,10,10,0,0,1-.05,1.63c0,.56-.13,1.13-.23,1.69l-.92,5.31,0,0,5.63-3.5,1.05,1.7-7.92,4.94-1-1.6,1.07-6.68a13.5,13.5,0,0,0,.21-1.8,9.92,9.92,0,0,0,0-1.37,4.79,4.79,0,0,0-.24-1,5.17,5.17,0,0,0-.42-.85,2.31,2.31,0,0,0-1.29-1.06,1.45,1.45,0,0,0-.47-.07,2.41,2.41,0,0,0-1.26.42,4.42,4.42,0,0,0-1.39,1.4,6.87,6.87,0,0,0-.9,2.19.16.16,0,0,1-.12.13h0c-.06,0-.1,0-.14-.1l-1-1.66a6.54,6.54,0,0,1,1-2.08,5.52,5.52,0,0,1,1.7-1.63,5.35,5.35,0,0,1,2.77-.92m0-1.42a6.64,6.64,0,0,0-3.52,1.14,7.12,7.12,0,0,0-2.13,2,8.3,8.3,0,0,0-1.15,2.52,1.4,1.4,0,0,0,.17,1.11l1,1.66a1.58,1.58,0,0,0,1.35.76h.13a1.55,1.55,0,0,0,1.35-1.09l0-.12a5.8,5.8,0,0,1,.7-1.75,3.11,3.11,0,0,1,1-1,1.06,1.06,0,0,1,.52-.21.88.88,0,0,1,.56.46,3.34,3.34,0,0,1,.29.6,2.58,2.58,0,0,1,.16.7,7.2,7.2,0,0,1,0,1.16,14.9,14.9,0,0,1-.18,1.63L332.45,234a1.4,1.4,0,0,0,.19,1l1,1.59a1.4,1.4,0,0,0,1.2.67,1.44,1.44,0,0,0,.75-.21l7.92-4.94a1.43,1.43,0,0,0,.46-1.95l-1.06-1.7a1.42,1.42,0,0,0-1.2-.67,1.36,1.36,0,0,0-.75.22l-3,1.85.39-2.25c.1-.59.19-1.2.24-1.79a11.27,11.27,0,0,0,.06-1.83,7.76,7.76,0,0,0-.27-1.81,6,6,0,0,0-.72-1.7,5.34,5.34,0,0,0-3.62-2.71,5.67,5.67,0,0,0-.82-.07Z"/><path class="cls-17" d="M345.27,229.88a2.59,2.59,0,0,1-.47,0,2.35,2.35,0,0,1-1.85-2.7,2.23,2.23,0,0,1,1-1.52,2.29,2.29,0,0,1,1.31-.42,2.09,2.09,0,0,1,.49.05,2.34,2.34,0,0,1,1.84,2.7,2.35,2.35,0,0,1-2.29,1.94Z"/><path class="cls-18" d="M345.23,225.9a2,2,0,0,1,.34,0,1.64,1.64,0,0,1,1,.69,1.58,1.58,0,0,1,.25,1.2,1.54,1.54,0,0,1-.69,1.06,1.6,1.6,0,0,1-.9.29,1.84,1.84,0,0,1-.33,0,1.63,1.63,0,0,1-1.29-1.89,1.64,1.64,0,0,1,1.58-1.35m0-1.42h0a3,3,0,0,0-3,2.54,3,3,0,0,0,.49,2.24,3,3,0,0,0,1.93,1.27,3.05,3.05,0,0,0,.6.06,2.93,2.93,0,0,0,1.7-.54,3,3,0,0,0-1.11-5.5,2.7,2.7,0,0,0-.63-.07Z"/><path class="cls-17" d="M349.52,225.68a5.93,5.93,0,0,1-.84-.06.7.7,0,0,1-.46-.28L347,223.68a.9.9,0,0,1-.12-.88.86.86,0,0,1,.81-.53,10.3,10.3,0,0,0,1.14.07,5.7,5.7,0,0,0,1.23-.12,4.51,4.51,0,0,0,1.71-.82,1.93,1.93,0,0,0,.52-.55,1.79,1.79,0,0,0,.25-.65,1.58,1.58,0,0,0,0-.68,1.67,1.67,0,0,0-.34-.68,1.92,1.92,0,0,0-1.33-.91h0a3.48,3.48,0,0,0-2,.89l-.38.29a.66.66,0,0,1-.42.15h-.1a.72.72,0,0,1-.47-.28l-1.19-1.58a.7.7,0,0,1,.14-1l.42-.32a5,5,0,0,0,.74-.71,2.4,2.4,0,0,0,.38-.64,1.07,1.07,0,0,0,0-.59,2.14,2.14,0,0,0-.45-.85c-.48-.64-.86-.65-1-.65h0a1.94,1.94,0,0,0-1.21.44,5.14,5.14,0,0,0-.59.53,3.41,3.41,0,0,0-.46.63,4.81,4.81,0,0,0-.35.82,7.09,7.09,0,0,0-.27,1.12.87.87,0,0,1-.74.72h-.11a.89.89,0,0,1-.71-.37L340.88,215a.7.7,0,0,1-.14-.54,6.53,6.53,0,0,1,.78-2.08,6.82,6.82,0,0,1,1.77-2,6.12,6.12,0,0,1,3.64-1.4h.21a4.29,4.29,0,0,1,3.3,1.87,4.39,4.39,0,0,1,.9,2.83,4.35,4.35,0,0,1-.17,1.08,4.36,4.36,0,0,1,.51,0,4.54,4.54,0,0,1,.82.07,4.22,4.22,0,0,1,2.65,1.72,5.6,5.6,0,0,1,.89,1.82,5.18,5.18,0,0,1,.11,2,5.4,5.4,0,0,1-.72,2,6.2,6.2,0,0,1-1.64,1.77,7.64,7.64,0,0,1-2.47,1.27A6,6,0,0,1,349.52,225.68Z"/><path class="cls-18" d="M346.93,209.64h.18a3.87,3.87,0,0,1,3.52,4,3.3,3.3,0,0,1-.24,1.17,3.14,3.14,0,0,1-.63,1l0,0a4.61,4.61,0,0,1,1.9-.44,3.93,3.93,0,0,1,.69.06,3.49,3.49,0,0,1,2.21,1.45,4.56,4.56,0,0,1,.77,1.58,4.29,4.29,0,0,1,.1,1.75,4.63,4.63,0,0,1-.63,1.75,5.54,5.54,0,0,1-1.46,1.58,7.3,7.3,0,0,1-2.25,1.16,5.58,5.58,0,0,1-1.59.24,6.13,6.13,0,0,1-.74-.05l-1.25-1.66a.17.17,0,0,1,0-.19.14.14,0,0,1,.15-.09h0a9.12,9.12,0,0,0,1.13.07,6.54,6.54,0,0,0,1.39-.14,5.31,5.31,0,0,0,2-.94,2.73,2.73,0,0,0,.69-.75,2.48,2.48,0,0,0,.35-.9,2.4,2.4,0,0,0,0-1,2.46,2.46,0,0,0-.46-1,2.59,2.59,0,0,0-1.85-1.19h-.12a4.15,4.15,0,0,0-2.35,1l-.38.29L346.8,217l.43-.33a6,6,0,0,0,.85-.81,3,3,0,0,0,.51-.87,1.8,1.8,0,0,0,0-1,2.89,2.89,0,0,0-.57-1.12,2,2,0,0,0-1.54-.93h0a2.67,2.67,0,0,0-1.61.59,5.77,5.77,0,0,0-.68.61,4.27,4.27,0,0,0-.55.75,5.66,5.66,0,0,0-.42,1,9.57,9.57,0,0,0-.29,1.22c0,.08-.06.13-.13.14h0a.18.18,0,0,1-.15-.09l-1.18-1.56a6,6,0,0,1,.7-1.86,6.07,6.07,0,0,1,1.59-1.8,5.37,5.37,0,0,1,3.2-1.25m0-1.41a6.72,6.72,0,0,0-4.05,1.53,7.53,7.53,0,0,0-2,2.24,7.28,7.28,0,0,0-.86,2.32,1.44,1.44,0,0,0,.27,1.08l1.18,1.56a1.58,1.58,0,0,0,1.28.65H343a1.55,1.55,0,0,0,1.34-1.22.2.2,0,0,0,0-.07,8.22,8.22,0,0,1,.25-1,4.46,4.46,0,0,1,.3-.69,2.7,2.7,0,0,1,.36-.49,3.54,3.54,0,0,1,.49-.45,1.32,1.32,0,0,1,.76-.3c.12,0,.29.14.46.37a1.9,1.9,0,0,1,.32.57.3.3,0,0,1,0,.2,1.33,1.33,0,0,1-.25.42,5,5,0,0,1-.66.63l-.39.29a1.43,1.43,0,0,0-.28,2l1.19,1.58a1.43,1.43,0,0,0,.94.55h.2a1.47,1.47,0,0,0,.85-.28l.38-.29a2.86,2.86,0,0,1,1.5-.75c.32,0,.63.35.84.62a1.18,1.18,0,0,1,.21.42.92.92,0,0,1,0,.4.93.93,0,0,1-.15.39,1.36,1.36,0,0,1-.35.37,3.76,3.76,0,0,1-1.44.69,4.89,4.89,0,0,1-1.07.11,6.81,6.81,0,0,1-1-.07h-.17a1.55,1.55,0,0,0-1.46,1,1.6,1.6,0,0,0,.21,1.59l1.25,1.66a1.46,1.46,0,0,0,.92.55,7.45,7.45,0,0,0,.95.07,6.78,6.78,0,0,0,2-.31,8.65,8.65,0,0,0,2.68-1.38,7,7,0,0,0,1.83-2,6.19,6.19,0,0,0,.82-2.29,5.79,5.79,0,0,0-.14-2.31,6,6,0,0,0-1-2.06,4.87,4.87,0,0,0-3.09-2A5.93,5.93,0,0,0,352,214c0-.11,0-.22,0-.33a5.11,5.11,0,0,0-.22-1.68,5.35,5.35,0,0,0-.82-1.59,5.05,5.05,0,0,0-3.84-2.16Z"/><path class="cls-17" d="M361.94,217.16a.69.69,0,0,1-.53-.24l-7.67-8.9a1.59,1.59,0,0,1-.07.2,12.33,12.33,0,0,1-.6,1.36.85.85,0,0,1-.76.5.91.91,0,0,1-.69-.34l-.95-1.1a.72.72,0,0,1-.1-.77,5.86,5.86,0,0,0,.46-1.49,7.35,7.35,0,0,0,.1-1.62.69.69,0,0,1,.25-.57l1.79-1.55a.71.71,0,0,1,1,.08l10.1,11.73a.64.64,0,0,1,.17.51.72.72,0,0,1-.24.49L362.41,217A.7.7,0,0,1,361.94,217.16Z"/><path class="cls-18" d="M353.63,203.18l10.11,11.73-1.8,1.54-8.53-9.91,0,0A8.2,8.2,0,0,1,353,208a11.92,11.92,0,0,1-.57,1.28c0,.08-.08.12-.13.12a.2.2,0,0,1-.15-.09l-1-1.11a6.48,6.48,0,0,0,.52-1.67,8.1,8.1,0,0,0,.11-1.77l1.79-1.55m0-1.42a1.43,1.43,0,0,0-.92.35l-1.79,1.54a1.45,1.45,0,0,0-.5,1.14,6.61,6.61,0,0,1-.09,1.47,4.88,4.88,0,0,1-.41,1.31,1.44,1.44,0,0,0,.21,1.53l1,1.11a1.62,1.62,0,0,0,1.22.58,1.54,1.54,0,0,0,1.39-.89c.09-.17.18-.35.26-.54l6.91,8a1.43,1.43,0,0,0,2,.15l1.79-1.55a1.39,1.39,0,0,0,.49-1,1.41,1.41,0,0,0-.34-1l-10.1-11.72a1.41,1.41,0,0,0-1.08-.5Z"/></g></svg>